<svg xmlns="http://www.w3.org/2000/svg" xmlns:xlink="http://www.w3.org/1999/xlink" width="500" zoomAndPan="magnify" viewBox="0 0 375 374.999991" height="500" preserveAspectRatio="xMidYMid meet" version="1.0"><defs><g/><clipPath id="10a006d8cc"><path d="M 0.480469 0.640625 L 333.839844 0.640625 L 333.839844 79 L 0.480469 79 Z M 0.480469 0.640625 " clip-rule="nonzero"/></clipPath><clipPath id="2beac1fef7"><rect x="0" width="334" y="0" height="79"/></clipPath><clipPath id="47782579c3"><rect x="0" width="334" y="0" height="110"/></clipPath></defs><rect x="-37.5" width="450" fill="#ffffff" y="-37.499999" height="449.999989" fill-opacity="1"/><rect x="-37.5" width="450" fill="#ffffff" y="-37.499999" height="449.999989" fill-opacity="1"/><g transform="matrix(1, 0, 0, 1, 30, 122)"><g clip-path="url(#47782579c3)"><g clip-path="url(#10a006d8cc)"><g><g clip-path="url(#2beac1fef7)"><g fill="#000000" fill-opacity="1"><g transform="translate(2.914568, 61.550809)"><g><path d="M 0.40625 0.203125 C 0 0.203125 -0.300781 0.0546875 -0.5 -0.234375 C -0.707031 -0.535156 -0.8125 -0.890625 -0.8125 -1.296875 C -0.769531 -1.972656 -0.632812 -2.378906 -0.40625 -2.515625 C -0.175781 -2.648438 0.09375 -2.71875 0.40625 -2.71875 C 0.726562 -2.71875 0.929688 -2.71875 1.015625 -2.71875 C 2.378906 -2.71875 3.378906 -3.066406 4.015625 -3.765625 C 4.648438 -4.472656 5.160156 -5.269531 5.546875 -6.15625 C 5.929688 -7.039062 6.191406 -7.640625 6.328125 -7.953125 L 18.21875 -36.109375 C 18.488281 -36.785156 18.625 -37.328125 18.625 -37.734375 C 18.625 -38.554688 18.304688 -39.144531 17.671875 -39.5 C 17.046875 -39.863281 16.164062 -40.160156 15.03125 -40.390625 C 14.257812 -40.523438 13.78125 -40.660156 13.59375 -40.796875 C 13.414062 -40.929688 13.328125 -41.316406 13.328125 -41.953125 C 13.328125 -42.492188 13.472656 -42.851562 13.765625 -43.03125 C 14.066406 -43.21875 14.53125 -43.3125 15.15625 -43.3125 C 17.425781 -43.3125 19.226562 -43.140625 20.5625 -42.796875 C 21.90625 -42.460938 23.070312 -41.785156 24.0625 -40.765625 C 25.0625 -39.742188 25.992188 -38.191406 26.859375 -36.109375 L 38.28125 -7.953125 C 38.957031 -6.234375 39.613281 -4.941406 40.25 -4.078125 C 40.882812 -3.210938 41.835938 -2.757812 43.109375 -2.71875 L 43.515625 -2.71875 C 43.972656 -2.71875 44.289062 -2.640625 44.46875 -2.484375 C 44.65625 -2.328125 44.769531 -1.929688 44.8125 -1.296875 C 44.8125 -0.890625 44.707031 -0.535156 44.5 -0.234375 C 44.300781 0.0546875 44 0.203125 43.59375 0.203125 C 40.6875 0.0664062 38.191406 0 36.109375 0 C 33.390625 0 30.578125 0.0664062 27.671875 0.203125 C 27.265625 0.203125 26.957031 0.0546875 26.75 -0.234375 C 26.550781 -0.535156 26.453125 -0.890625 26.453125 -1.296875 C 26.492188 -1.929688 26.601562 -2.328125 26.78125 -2.484375 C 26.96875 -2.640625 27.289062 -2.71875 27.75 -2.71875 C 29.289062 -2.71875 30.375 -2.863281 31 -3.15625 C 31.632812 -3.457031 31.953125 -3.992188 31.953125 -4.765625 C 31.953125 -5.347656 31.679688 -6.410156 31.140625 -7.953125 L 28.828125 -13.59375 L 12.03125 -13.59375 C 10.90625 -10.789062 10.257812 -9.160156 10.09375 -8.703125 C 9.9375 -8.253906 9.859375 -8.003906 9.859375 -7.953125 C 9.316406 -6.234375 9.046875 -5.125 9.046875 -4.625 C 9.046875 -3.851562 9.382812 -3.34375 10.0625 -3.09375 C 10.738281 -2.84375 12.03125 -2.71875 13.9375 -2.71875 L 14.34375 -2.71875 C 14.800781 -2.71875 15.117188 -2.640625 15.296875 -2.484375 C 15.484375 -2.328125 15.597656 -1.929688 15.640625 -1.296875 C 15.640625 -0.890625 15.535156 -0.535156 15.328125 -0.234375 C 15.128906 0.0546875 14.828125 0.203125 14.421875 0.203125 C 11.515625 0.0664062 9.039062 0 7 0 C 5.550781 0 3.351562 0.0664062 0.40625 0.203125 Z M 13.328125 -16.53125 L 27.609375 -16.53125 L 20.734375 -34 L 20.53125 -34 Z M 13.328125 -16.53125 "/></g></g></g><g fill="#000000" fill-opacity="1"><g transform="translate(65.809652, 61.550809)"><g><path d="M 24.40625 1.359375 C 20.914062 1.359375 17.9375 0.75 15.46875 -0.46875 C 13 -1.695312 11.128906 -3.304688 9.859375 -5.296875 C 8.585938 -7.296875 7.953125 -9.453125 7.953125 -11.765625 L 7.953125 -34.953125 C 7.910156 -36.085938 7.804688 -37.003906 7.640625 -37.703125 C 7.484375 -38.410156 7.085938 -39 6.453125 -39.46875 C 5.828125 -39.945312 4.851562 -40.1875 3.53125 -40.1875 L 3.125 -40.1875 C 2.675781 -40.1875 2.359375 -40.265625 2.171875 -40.421875 C 1.992188 -40.578125 1.882812 -40.972656 1.84375 -41.609375 C 1.84375 -42.023438 1.941406 -42.378906 2.140625 -42.671875 C 2.347656 -42.960938 2.65625 -43.109375 3.0625 -43.109375 C 5.957031 -42.972656 8.628906 -42.90625 11.078125 -42.90625 C 13.847656 -42.90625 16.679688 -42.972656 19.578125 -43.109375 C 19.992188 -43.109375 20.300781 -42.960938 20.5 -42.671875 C 20.707031 -42.378906 20.8125 -42.023438 20.8125 -41.609375 C 20.757812 -40.972656 20.628906 -40.578125 20.421875 -40.421875 C 20.222656 -40.265625 19.898438 -40.1875 19.453125 -40.1875 C 17.992188 -40.1875 16.925781 -39.957031 16.25 -39.5 C 15.570312 -39.050781 15.148438 -38.484375 14.984375 -37.796875 C 14.828125 -37.117188 14.726562 -36.171875 14.6875 -34.953125 L 14.6875 -13.734375 C 14.6875 -10.609375 15.421875 -7.976562 16.890625 -5.84375 C 18.367188 -3.71875 21.238281 -2.65625 25.5 -2.65625 C 29.664062 -2.65625 32.617188 -3.617188 34.359375 -5.546875 C 36.109375 -7.472656 36.984375 -9.882812 36.984375 -12.78125 L 36.984375 -30.671875 C 36.984375 -33.753906 36.867188 -35.925781 36.640625 -37.1875 C 36.421875 -38.457031 35.96875 -39.273438 35.28125 -39.640625 C 34.601562 -40.003906 33.425781 -40.1875 31.75 -40.1875 L 31.34375 -40.1875 C 30.9375 -40.1875 30.628906 -40.265625 30.421875 -40.421875 C 30.222656 -40.578125 30.101562 -40.972656 30.0625 -41.609375 C 30.0625 -42.023438 30.160156 -42.378906 30.359375 -42.671875 C 30.566406 -42.960938 30.875 -43.109375 31.28125 -43.109375 C 34.226562 -42.972656 36.765625 -42.90625 38.890625 -42.90625 C 41.066406 -42.90625 43.609375 -42.972656 46.515625 -43.109375 C 46.921875 -43.109375 47.222656 -42.960938 47.421875 -42.671875 C 47.628906 -42.378906 47.734375 -42.023438 47.734375 -41.609375 C 47.691406 -40.972656 47.566406 -40.578125 47.359375 -40.421875 C 47.160156 -40.265625 46.832031 -40.1875 46.375 -40.1875 C 44.5625 -40.1875 43.300781 -40.023438 42.59375 -39.703125 C 41.894531 -39.390625 41.421875 -38.628906 41.171875 -37.421875 C 40.921875 -36.222656 40.796875 -34.109375 40.796875 -31.078125 L 40.796875 -12.109375 C 40.796875 -9.066406 39.957031 -6.535156 38.28125 -4.515625 C 36.601562 -2.503906 34.503906 -1.019531 31.984375 -0.0625 C 29.472656 0.882812 26.945312 1.359375 24.40625 1.359375 Z M 24.40625 1.359375 "/></g></g></g><g fill="#000000" fill-opacity="1"><g transform="translate(134.212147, 61.550809)"><g><path d="M 4.140625 0.203125 C 3.734375 0.203125 3.425781 0.0546875 3.21875 -0.234375 C 3.019531 -0.535156 2.921875 -0.890625 2.921875 -1.296875 C 2.960938 -1.972656 3.097656 -2.378906 3.328125 -2.515625 C 3.554688 -2.648438 3.988281 -2.71875 4.625 -2.71875 C 5.9375 -2.71875 6.910156 -2.953125 7.546875 -3.421875 C 8.179688 -3.898438 8.578125 -4.488281 8.734375 -5.1875 C 8.890625 -5.894531 8.992188 -6.816406 9.046875 -7.953125 L 9.046875 -34.890625 C 8.992188 -36.066406 8.890625 -36.992188 8.734375 -37.671875 C 8.578125 -38.347656 8.179688 -38.9375 7.546875 -39.4375 C 6.910156 -39.9375 5.9375 -40.1875 4.625 -40.1875 L 4.21875 -40.1875 C 3.757812 -40.1875 3.4375 -40.265625 3.25 -40.421875 C 3.070312 -40.578125 2.960938 -40.972656 2.921875 -41.609375 C 2.921875 -42.023438 3.019531 -42.378906 3.21875 -42.671875 C 3.425781 -42.960938 3.734375 -43.109375 4.140625 -43.109375 C 7.085938 -42.972656 9.785156 -42.90625 12.234375 -42.90625 L 23.9375 -42.90625 C 27.425781 -42.863281 30.335938 -42.304688 32.671875 -41.234375 C 35.003906 -40.171875 36.710938 -38.8125 37.796875 -37.15625 C 38.890625 -35.507812 39.4375 -33.734375 39.4375 -31.828125 C 39.4375 -29.328125 38.453125 -27.035156 36.484375 -24.953125 C 34.515625 -22.867188 31.828125 -21.375 28.421875 -20.46875 L 29.578125 -18.625 C 31.484375 -15.550781 33.207031 -12.910156 34.75 -10.703125 C 36.289062 -8.503906 37.96875 -6.457031 39.78125 -4.5625 C 41.050781 -3.507812 42.410156 -2.894531 43.859375 -2.71875 C 43.953125 -2.71875 44.15625 -2.707031 44.46875 -2.6875 C 44.789062 -2.664062 45.050781 -2.539062 45.25 -2.3125 C 45.457031 -2.082031 45.5625 -1.742188 45.5625 -1.296875 C 45.5625 -0.890625 45.457031 -0.535156 45.25 -0.234375 C 45.050781 0.0546875 44.75 0.203125 44.34375 0.203125 L 42.5625 0.140625 C 40.570312 0.046875 39.125 0 38.21875 0 C 36.40625 -0.363281 34.851562 -1.007812 33.5625 -1.9375 C 32.269531 -2.863281 30.988281 -4.191406 29.71875 -5.921875 C 28.40625 -7.640625 26.566406 -10.445312 24.203125 -14.34375 L 22.984375 -16.3125 C 22.304688 -17.363281 21.648438 -18.082031 21.015625 -18.46875 C 20.378906 -18.851562 19.289062 -19.046875 17.75 -19.046875 L 15.78125 -19.046875 L 15.78125 -7.953125 C 15.820312 -6.816406 15.921875 -5.894531 16.078125 -5.1875 C 16.234375 -4.488281 16.628906 -3.898438 17.265625 -3.421875 C 17.898438 -2.953125 18.878906 -2.71875 20.203125 -2.71875 L 20.609375 -2.71875 C 21.015625 -2.71875 21.316406 -2.640625 21.515625 -2.484375 C 21.722656 -2.328125 21.847656 -1.929688 21.890625 -1.296875 C 21.890625 -0.890625 21.785156 -0.535156 21.578125 -0.234375 C 21.378906 0.0546875 21.078125 0.203125 20.671875 0.203125 C 17.765625 0.0664062 14.929688 0 12.171875 0 C 9.765625 0 7.085938 0.0664062 4.140625 0.203125 Z M 21.765625 -21.6875 C 28.515625 -21.6875 31.890625 -24.863281 31.890625 -31.21875 C 31.890625 -33.800781 31.003906 -35.972656 29.234375 -37.734375 C 27.472656 -39.503906 24.570312 -40.390625 20.53125 -40.390625 C 19.21875 -40.390625 18.222656 -40.226562 17.546875 -39.90625 C 16.867188 -39.59375 16.40625 -39.050781 16.15625 -38.28125 C 15.90625 -37.507812 15.78125 -36.332031 15.78125 -34.75 L 15.78125 -21.6875 Z M 21.765625 -21.6875 "/></g></g></g><g fill="#000000" fill-opacity="1"><g transform="translate(200.710929, 61.550809)"><g><path d="M 4.078125 0.203125 C 3.710938 0.203125 3.425781 0.0546875 3.21875 -0.234375 C 3.019531 -0.535156 2.921875 -0.890625 2.921875 -1.296875 C 2.960938 -1.972656 3.097656 -2.378906 3.328125 -2.515625 C 3.554688 -2.648438 3.988281 -2.71875 4.625 -2.71875 C 5.9375 -2.71875 6.910156 -2.953125 7.546875 -3.421875 C 8.179688 -3.898438 8.578125 -4.488281 8.734375 -5.1875 C 8.890625 -5.894531 8.992188 -6.816406 9.046875 -7.953125 L 9.046875 -34.953125 C 8.992188 -36.085938 8.890625 -37.003906 8.734375 -37.703125 C 8.578125 -38.410156 8.179688 -39 7.546875 -39.46875 C 6.910156 -39.945312 5.9375 -40.1875 4.625 -40.1875 L 4.21875 -40.1875 C 3.757812 -40.1875 3.4375 -40.265625 3.25 -40.421875 C 3.070312 -40.578125 2.960938 -40.972656 2.921875 -41.609375 C 2.921875 -42.023438 3.019531 -42.378906 3.21875 -42.671875 C 3.425781 -42.960938 3.710938 -43.109375 4.078125 -43.109375 C 7.066406 -42.972656 9.765625 -42.90625 12.171875 -42.90625 L 33.53125 -42.90625 C 34.707031 -42.90625 35.296875 -42.363281 35.296875 -41.28125 L 35.5 -31.75 C 35.5 -31.34375 35.289062 -31.015625 34.875 -30.765625 C 34.46875 -30.515625 34.0625 -30.390625 33.65625 -30.390625 C 33.113281 -30.390625 32.640625 -30.492188 32.234375 -30.703125 C 31.828125 -30.910156 31.597656 -31.21875 31.546875 -31.625 C 31.191406 -33.84375 30.796875 -35.53125 30.359375 -36.6875 C 29.929688 -37.84375 29.296875 -38.703125 28.453125 -39.265625 C 27.617188 -39.835938 26.429688 -40.144531 24.890625 -40.1875 L 15.78125 -40.1875 L 15.78125 -22.921875 L 28.078125 -22.921875 C 28.398438 -22.867188 28.648438 -22.695312 28.828125 -22.40625 C 29.015625 -22.113281 29.109375 -21.765625 29.109375 -21.359375 C 29.109375 -20.992188 29.015625 -20.671875 28.828125 -20.390625 C 28.648438 -20.117188 28.398438 -19.984375 28.078125 -19.984375 L 15.78125 -19.984375 L 15.78125 -7.140625 C 15.863281 -6.191406 15.972656 -5.429688 16.109375 -4.859375 C 16.242188 -4.296875 16.648438 -3.785156 17.328125 -3.328125 C 18.015625 -2.878906 19.082031 -2.675781 20.53125 -2.71875 L 26.796875 -2.71875 C 28.378906 -2.757812 29.578125 -3.019531 30.390625 -3.5 C 31.210938 -3.976562 31.859375 -4.710938 32.328125 -5.703125 C 32.804688 -6.703125 33.382812 -8.335938 34.0625 -10.609375 C 34.382812 -11.421875 35.15625 -11.738281 36.375 -11.5625 C 36.832031 -11.46875 37.226562 -11.285156 37.5625 -11.015625 C 37.90625 -10.742188 38.054688 -10.40625 38.015625 -10 L 36.65625 -1.421875 C 36.519531 -0.835938 36.3125 -0.453125 36.03125 -0.265625 C 35.757812 -0.0859375 35.3125 0 34.6875 0 L 12.234375 0 C 9.785156 0 7.066406 0.0664062 4.078125 0.203125 Z M 4.078125 0.203125 "/></g></g></g><g fill="#000000" fill-opacity="1"><g transform="translate(261.974303, 61.550809)"><g><path d="M 4.21875 0.203125 C 3.8125 0.203125 3.503906 0.0546875 3.296875 -0.234375 C 3.085938 -0.535156 2.984375 -0.890625 2.984375 -1.296875 C 3.035156 -1.972656 3.171875 -2.378906 3.390625 -2.515625 C 3.617188 -2.648438 4.050781 -2.71875 4.6875 -2.71875 C 6 -2.71875 6.960938 -2.953125 7.578125 -3.421875 C 8.191406 -3.898438 8.566406 -4.46875 8.703125 -5.125 C 8.835938 -5.789062 8.925781 -6.734375 8.96875 -7.953125 L 9.109375 -34.953125 C 9.109375 -36.304688 8.960938 -37.332031 8.671875 -38.03125 C 8.378906 -38.738281 7.914062 -39.25 7.28125 -39.5625 C 6.644531 -39.882812 5.738281 -40.160156 4.5625 -40.390625 C 3.789062 -40.523438 3.3125 -40.660156 3.125 -40.796875 C 2.945312 -40.929688 2.859375 -41.316406 2.859375 -41.953125 C 2.859375 -42.492188 3.003906 -42.851562 3.296875 -43.03125 C 3.585938 -43.21875 4.050781 -43.3125 4.6875 -43.3125 C 7.5 -43.3125 9.71875 -43.117188 11.34375 -42.734375 C 12.976562 -42.347656 14.421875 -41.65625 15.671875 -40.65625 C 16.921875 -39.664062 18.289062 -38.148438 19.78125 -36.109375 L 38.421875 -11.625 L 38.625 -11.625 L 38.484375 -34.953125 C 38.441406 -36.171875 38.351562 -37.109375 38.21875 -37.765625 C 38.082031 -38.429688 37.707031 -39 37.09375 -39.46875 C 36.476562 -39.945312 35.515625 -40.1875 34.203125 -40.1875 L 33.796875 -40.1875 C 33.335938 -40.1875 33.003906 -40.265625 32.796875 -40.421875 C 32.597656 -40.578125 32.476562 -40.972656 32.4375 -41.609375 C 32.4375 -42.023438 32.546875 -42.378906 32.765625 -42.671875 C 32.992188 -42.960938 33.289062 -43.109375 33.65625 -43.109375 C 36.5625 -42.972656 38.738281 -42.90625 40.1875 -42.90625 C 41.050781 -42.90625 42.707031 -42.953125 45.15625 -43.046875 L 46.578125 -43.109375 C 46.984375 -43.109375 47.285156 -42.960938 47.484375 -42.671875 C 47.691406 -42.378906 47.796875 -42.023438 47.796875 -41.609375 C 47.753906 -40.929688 47.617188 -40.523438 47.390625 -40.390625 C 47.171875 -40.253906 46.742188 -40.1875 46.109375 -40.1875 C 44.785156 -40.1875 43.816406 -39.945312 43.203125 -39.46875 C 42.597656 -39 42.226562 -38.429688 42.09375 -37.765625 C 41.957031 -37.109375 41.863281 -36.171875 41.8125 -34.953125 L 41.6875 -0.6875 C 41.632812 -0.09375 41.066406 0.203125 39.984375 0.203125 C 39.117188 0.203125 38.460938 -0.09375 38.015625 -0.6875 L 12.375 -34.953125 L 12.171875 -34.953125 L 12.3125 -7.953125 C 12.351562 -6.734375 12.441406 -5.789062 12.578125 -5.125 C 12.710938 -4.46875 13.085938 -3.898438 13.703125 -3.421875 C 14.316406 -2.953125 15.28125 -2.71875 16.59375 -2.71875 L 17 -2.71875 C 17.457031 -2.71875 17.785156 -2.640625 17.984375 -2.484375 C 18.191406 -2.328125 18.316406 -1.929688 18.359375 -1.296875 C 18.359375 -0.890625 18.253906 -0.535156 18.046875 -0.234375 C 17.847656 0.0546875 17.546875 0.203125 17.140625 0.203125 C 14.234375 0.0664062 12.035156 0 10.546875 0 C 9.640625 0 8.050781 0.046875 5.78125 0.140625 Z M 4.21875 0.203125 "/></g></g></g></g></g></g><g fill="#000000" fill-opacity="1"><g transform="translate(74.603458, 103.268609)"><g><path d="M 2.40625 0.34375 C 2.257812 0.34375 2.144531 0.296875 2.0625 0.203125 C 1.976562 0.117188 1.9375 0 1.9375 -0.15625 L 1.9375 -14.65625 C 1.9375 -15.082031 1.921875 -15.394531 1.890625 -15.59375 C 1.867188 -15.800781 1.765625 -15.976562 1.578125 -16.125 C 1.398438 -16.269531 1.097656 -16.34375 0.671875 -16.34375 C 0.472656 -16.34375 0.320312 -16.367188 0.21875 -16.421875 C 0.125 -16.484375 0.078125 -16.625 0.078125 -16.84375 C 0.078125 -16.945312 0.109375 -17.039062 0.171875 -17.125 C 0.234375 -17.21875 0.332031 -17.273438 0.46875 -17.296875 C 1.507812 -17.441406 2.40625 -17.65625 3.15625 -17.9375 C 3.382812 -18.019531 3.570312 -18.070312 3.71875 -18.09375 L 3.796875 -18.09375 C 4.066406 -18.09375 4.203125 -17.929688 4.203125 -17.609375 L 4.203125 -10.109375 L 4.265625 -10.109375 C 4.753906 -10.585938 5.300781 -10.945312 5.90625 -11.1875 C 6.507812 -11.425781 7.109375 -11.546875 7.703125 -11.546875 C 8.679688 -11.546875 9.566406 -11.296875 10.359375 -10.796875 C 11.148438 -10.304688 11.773438 -9.617188 12.234375 -8.734375 C 12.691406 -7.847656 12.921875 -6.84375 12.921875 -5.71875 C 12.921875 -4.601562 12.660156 -3.585938 12.140625 -2.671875 C 11.617188 -1.753906 10.914062 -1.03125 10.03125 -0.5 C 9.15625 0.03125 8.222656 0.296875 7.234375 0.296875 C 5.753906 0.296875 4.476562 -0.109375 3.40625 -0.921875 L 3.28125 -0.921875 C 3.21875 -0.785156 3.144531 -0.601562 3.0625 -0.375 C 2.976562 -0.144531 2.882812 0.03125 2.78125 0.15625 C 2.6875 0.28125 2.5625 0.34375 2.40625 0.34375 Z M 7 -0.546875 C 8.007812 -0.546875 8.828125 -1.003906 9.453125 -1.921875 C 10.078125 -2.835938 10.390625 -4.066406 10.390625 -5.609375 C 10.390625 -6.898438 10.085938 -8.003906 9.484375 -8.921875 C 8.890625 -9.847656 8.003906 -10.3125 6.828125 -10.3125 C 5.785156 -10.3125 4.910156 -9.929688 4.203125 -9.171875 L 4.203125 -2.609375 C 4.242188 -2.347656 4.382812 -2.050781 4.625 -1.71875 C 4.875 -1.394531 5.195312 -1.117188 5.59375 -0.890625 C 6 -0.660156 6.46875 -0.546875 7 -0.546875 Z M 7 -0.546875 "/></g></g></g><g fill="#000000" fill-opacity="1"><g transform="translate(88.543618, 103.268609)"><g><path d="M 6.8125 0.296875 C 5.6875 0.296875 4.679688 0.03125 3.796875 -0.5 C 2.921875 -1.039062 2.238281 -1.753906 1.75 -2.640625 C 1.257812 -3.523438 1.015625 -4.46875 1.015625 -5.46875 C 1.015625 -6.707031 1.300781 -7.785156 1.875 -8.703125 C 2.457031 -9.628906 3.195312 -10.332031 4.09375 -10.8125 C 4.988281 -11.300781 5.894531 -11.546875 6.8125 -11.546875 C 7.9375 -11.546875 8.9375 -11.273438 9.8125 -10.734375 C 10.6875 -10.203125 11.367188 -9.492188 11.859375 -8.609375 C 12.347656 -7.722656 12.59375 -6.78125 12.59375 -5.78125 C 12.59375 -4.539062 12.296875 -3.460938 11.703125 -2.546875 C 11.117188 -1.628906 10.378906 -0.925781 9.484375 -0.4375 C 8.597656 0.0507812 7.707031 0.296875 6.8125 0.296875 Z M 6.8125 -0.625 C 7.9375 -0.625 8.757812 -1.101562 9.28125 -2.0625 C 9.800781 -3.019531 10.0625 -4.257812 10.0625 -5.78125 C 10.0625 -7.207031 9.789062 -8.375 9.25 -9.28125 C 8.71875 -10.1875 7.90625 -10.640625 6.8125 -10.640625 C 5.664062 -10.640625 4.832031 -10.164062 4.3125 -9.21875 C 3.800781 -8.269531 3.546875 -7.035156 3.546875 -5.515625 C 3.546875 -4.085938 3.8125 -2.914062 4.34375 -2 C 4.875 -1.082031 5.695312 -0.625 6.8125 -0.625 Z M 6.8125 -0.625 "/></g></g></g><g fill="#000000" fill-opacity="1"><g transform="translate(102.160743, 103.268609)"><g><path d="M 6.234375 0.296875 C 5.304688 0.296875 4.441406 0.046875 3.640625 -0.453125 C 2.847656 -0.960938 2.210938 -1.664062 1.734375 -2.5625 C 1.253906 -3.46875 1.015625 -4.492188 1.015625 -5.640625 C 1.015625 -6.671875 1.265625 -7.640625 1.765625 -8.546875 C 2.265625 -9.453125 2.953125 -10.175781 3.828125 -10.71875 C 4.703125 -11.269531 5.675781 -11.546875 6.75 -11.546875 C 7.269531 -11.546875 7.785156 -11.484375 8.296875 -11.359375 C 8.804688 -11.234375 9.253906 -11.066406 9.640625 -10.859375 L 9.71875 -10.859375 L 9.71875 -14.65625 C 9.71875 -15.082031 9.703125 -15.394531 9.671875 -15.59375 C 9.648438 -15.800781 9.546875 -15.976562 9.359375 -16.125 C 9.179688 -16.269531 8.878906 -16.34375 8.453125 -16.34375 C 8.253906 -16.34375 8.101562 -16.367188 8 -16.421875 C 7.894531 -16.484375 7.84375 -16.625 7.84375 -16.84375 C 7.84375 -16.945312 7.875 -17.039062 7.9375 -17.125 C 8.007812 -17.21875 8.113281 -17.273438 8.25 -17.296875 C 9.289062 -17.441406 10.1875 -17.65625 10.9375 -17.9375 C 11.164062 -18.019531 11.351562 -18.070312 11.5 -18.09375 L 11.578125 -18.09375 C 11.835938 -18.09375 11.96875 -17.929688 11.96875 -17.609375 L 11.96875 -2.28125 C 11.96875 -1.300781 12.613281 -0.8125 13.90625 -0.8125 C 14.1875 -0.8125 14.328125 -0.679688 14.328125 -0.421875 C 14.328125 -0.191406 14.1875 -0.0507812 13.90625 0 L 9.96875 0.265625 C 9.84375 0.265625 9.769531 0.226562 9.75 0.15625 C 9.738281 0.0820312 9.734375 -0.0390625 9.734375 -0.21875 L 9.734375 -1.21875 L 9.671875 -1.21875 C 9.234375 -0.769531 8.703125 -0.40625 8.078125 -0.125 C 7.460938 0.15625 6.847656 0.296875 6.234375 0.296875 Z M 7.078125 -0.9375 C 7.660156 -0.9375 8.15625 -1.046875 8.5625 -1.265625 C 8.96875 -1.492188 9.351562 -1.800781 9.71875 -2.1875 L 9.71875 -8.75 C 9.5625 -9.226562 9.25 -9.664062 8.78125 -10.0625 C 8.3125 -10.457031 7.71875 -10.65625 7 -10.65625 C 6.351562 -10.65625 5.769531 -10.453125 5.25 -10.046875 C 4.726562 -9.640625 4.316406 -9.046875 4.015625 -8.265625 C 3.722656 -7.492188 3.578125 -6.578125 3.578125 -5.515625 C 3.578125 -4.242188 3.878906 -3.160156 4.484375 -2.265625 C 5.085938 -1.378906 5.953125 -0.9375 7.078125 -0.9375 Z M 7.078125 -0.9375 "/></g></g></g><g fill="#000000" fill-opacity="1"><g transform="translate(116.37424, 103.268609)"><g><path d="M 2.390625 5.421875 C 1.671875 5.421875 1.035156 5.191406 0.484375 4.734375 C -0.0664062 4.273438 -0.34375 3.734375 -0.34375 3.109375 C -0.34375 2.359375 -0.140625 1.878906 0.265625 1.671875 C 0.679688 1.460938 1.003906 1.359375 1.234375 1.359375 C 1.523438 1.359375 1.757812 1.414062 1.9375 1.53125 C 2.125 1.65625 2.21875 1.765625 2.21875 1.859375 C 2.21875 1.890625 2.148438 1.972656 2.015625 2.109375 C 1.878906 2.242188 1.8125 2.476562 1.8125 2.8125 C 1.8125 3.132812 1.914062 3.421875 2.125 3.671875 C 2.332031 3.921875 2.625 4.046875 3 4.046875 C 4.050781 4.046875 5.070312 2.976562 6.0625 0.84375 C 6.125 0.613281 6.15625 0.441406 6.15625 0.328125 C 6.15625 0.160156 6.113281 -0.046875 6.03125 -0.296875 C 5.707031 -1.046875 5.15625 -2.429688 4.375 -4.453125 C 3.695312 -6.253906 3.140625 -7.628906 2.703125 -8.578125 C 2.421875 -9.222656 2.15625 -9.664062 1.90625 -9.90625 C 1.664062 -10.144531 1.300781 -10.296875 0.8125 -10.359375 C 0.769531 -10.378906 0.679688 -10.394531 0.546875 -10.40625 C 0.410156 -10.425781 0.328125 -10.46875 0.296875 -10.53125 C 0.265625 -10.601562 0.25 -10.71875 0.25 -10.875 C 0.25 -11.070312 0.300781 -11.195312 0.40625 -11.25 C 0.519531 -11.300781 0.65625 -11.332031 0.8125 -11.34375 C 0.96875 -11.351562 1.070312 -11.359375 1.125 -11.359375 C 2.132812 -11.398438 2.925781 -11.25 3.5 -10.90625 C 4.082031 -10.570312 4.5625 -9.984375 4.9375 -9.140625 C 5.300781 -8.296875 5.625 -7.492188 5.90625 -6.734375 C 6.570312 -4.941406 7.113281 -3.632812 7.53125 -2.8125 L 7.609375 -2.8125 L 10.03125 -9.3125 C 10.113281 -9.59375 10.15625 -9.789062 10.15625 -9.90625 C 10.15625 -10.09375 10.070312 -10.21875 9.90625 -10.28125 C 9.75 -10.351562 9.476562 -10.390625 9.09375 -10.390625 L 8.9375 -10.390625 C 8.8125 -10.390625 8.71875 -10.410156 8.65625 -10.453125 C 8.601562 -10.503906 8.566406 -10.628906 8.546875 -10.828125 C 8.546875 -10.941406 8.570312 -11.050781 8.625 -11.15625 C 8.6875 -11.269531 8.773438 -11.328125 8.890625 -11.328125 C 9.835938 -11.273438 10.640625 -11.25 11.296875 -11.25 C 11.566406 -11.25 12.082031 -11.265625 12.84375 -11.296875 L 13.359375 -11.328125 C 13.484375 -11.328125 13.578125 -11.269531 13.640625 -11.15625 C 13.703125 -11.050781 13.734375 -10.941406 13.734375 -10.828125 C 13.722656 -10.628906 13.679688 -10.503906 13.609375 -10.453125 C 13.546875 -10.410156 13.445312 -10.390625 13.3125 -10.390625 C 12.695312 -10.390625 12.222656 -10.285156 11.890625 -10.078125 C 11.566406 -9.878906 11.289062 -9.492188 11.0625 -8.921875 C 10.675781 -7.972656 10.0625 -6.453125 9.21875 -4.359375 C 8.375 -2.273438 7.742188 -0.738281 7.328125 0.25 C 6.734375 1.675781 6.035156 2.894531 5.234375 3.90625 C 4.441406 4.914062 3.492188 5.421875 2.390625 5.421875 Z M 2.390625 5.421875 "/></g></g></g><g fill="#000000" fill-opacity="1"><g transform="translate(130.09076, 103.268609)"><g/></g></g><g fill="#000000" fill-opacity="1"><g transform="translate(135.632037, 103.268609)"><g><path d="M 9.671875 0.5 C 8.273438 0.5 6.984375 0.257812 5.796875 -0.21875 C 4.617188 -0.695312 3.664062 -1.429688 2.9375 -2.421875 C 2.207031 -3.410156 1.84375 -4.640625 1.84375 -6.109375 C 1.84375 -7.335938 2.195312 -8.398438 2.90625 -9.296875 C 3.613281 -10.203125 4.625 -10.765625 5.9375 -10.984375 L 5.9375 -11.0625 C 4.894531 -11.832031 4.375 -12.800781 4.375 -13.96875 C 4.375 -15.0625 4.769531 -15.9375 5.5625 -16.59375 C 6.351562 -17.257812 7.445312 -17.59375 8.84375 -17.59375 C 9.832031 -17.59375 10.664062 -17.367188 11.34375 -16.921875 C 12.03125 -16.484375 12.375 -15.84375 12.375 -15 C 12.375 -14.46875 12.21875 -14.007812 11.90625 -13.625 C 11.601562 -13.25 11.195312 -13.0625 10.6875 -13.0625 C 10.363281 -13.0625 10.09375 -13.144531 9.875 -13.3125 C 9.65625 -13.476562 9.546875 -13.617188 9.546875 -13.734375 C 9.546875 -13.753906 9.617188 -13.828125 9.765625 -13.953125 C 9.910156 -14.085938 10.046875 -14.25 10.171875 -14.4375 C 10.296875 -14.632812 10.359375 -14.859375 10.359375 -15.109375 C 10.359375 -15.585938 10.1875 -15.96875 9.84375 -16.25 C 9.507812 -16.539062 9.085938 -16.6875 8.578125 -16.6875 C 7.773438 -16.6875 7.15625 -16.445312 6.71875 -15.96875 C 6.28125 -15.488281 6.0625 -14.894531 6.0625 -14.1875 C 6.0625 -12.976562 6.566406 -12.097656 7.578125 -11.546875 L 8.390625 -11.546875 C 8.660156 -11.546875 8.835938 -11.515625 8.921875 -11.453125 C 9.015625 -11.398438 9.070312 -11.234375 9.09375 -10.953125 C 9.09375 -10.785156 9.050781 -10.644531 8.96875 -10.53125 C 8.882812 -10.414062 8.769531 -10.359375 8.625 -10.359375 L 7.75 -10.359375 C 6.675781 -10.253906 5.859375 -9.828125 5.296875 -9.078125 C 4.742188 -8.335938 4.46875 -7.484375 4.46875 -6.515625 C 4.46875 -5.453125 4.71875 -4.519531 5.21875 -3.71875 C 5.71875 -2.925781 6.410156 -2.3125 7.296875 -1.875 C 8.179688 -1.445312 9.1875 -1.234375 10.3125 -1.234375 C 11.519531 -1.234375 12.628906 -1.484375 13.640625 -1.984375 C 14.648438 -2.492188 15.453125 -3.191406 16.046875 -4.078125 C 16.640625 -4.972656 16.9375 -5.972656 16.9375 -7.078125 C 16.9375 -8.035156 16.671875 -8.867188 16.140625 -9.578125 C 15.617188 -10.296875 14.894531 -10.65625 13.96875 -10.65625 C 13.476562 -10.65625 13.003906 -10.519531 12.546875 -10.25 C 12.097656 -9.976562 11.875 -9.59375 11.875 -9.09375 C 11.875 -8.820312 11.941406 -8.59375 12.078125 -8.40625 C 12.222656 -8.21875 12.4375 -8.097656 12.71875 -8.046875 C 13.144531 -7.992188 13.488281 -8.078125 13.75 -8.296875 C 14.019531 -8.515625 14.171875 -8.628906 14.203125 -8.640625 C 14.285156 -8.628906 14.390625 -8.519531 14.515625 -8.3125 C 14.640625 -8.101562 14.703125 -7.867188 14.703125 -7.609375 C 14.703125 -7.109375 14.53125 -6.71875 14.1875 -6.4375 C 13.851562 -6.15625 13.4375 -6.015625 12.9375 -6.015625 C 12.3125 -6.015625 11.804688 -6.265625 11.421875 -6.765625 C 11.046875 -7.273438 10.859375 -7.925781 10.859375 -8.71875 C 10.859375 -9.914062 11.171875 -10.828125 11.796875 -11.453125 C 12.429688 -12.078125 13.175781 -12.5 14.03125 -12.71875 C 14.894531 -12.945312 16.015625 -13.144531 17.390625 -13.3125 C 18.597656 -13.425781 19.484375 -13.578125 20.046875 -13.765625 C 20.410156 -13.898438 20.710938 -14.085938 20.953125 -14.328125 C 21.191406 -14.566406 21.3125 -14.832031 21.3125 -15.125 C 21.3125 -15.625 21.003906 -15.914062 20.390625 -16 C 19.960938 -16.050781 19.613281 -15.96875 19.34375 -15.75 C 19.082031 -15.53125 18.9375 -15.414062 18.90625 -15.40625 C 18.800781 -15.414062 18.679688 -15.546875 18.546875 -15.796875 C 18.421875 -16.046875 18.382812 -16.328125 18.4375 -16.640625 C 18.5 -17.109375 18.695312 -17.457031 19.03125 -17.6875 C 19.363281 -17.914062 19.753906 -18.03125 20.203125 -18.03125 C 20.566406 -18.03125 20.867188 -17.972656 21.109375 -17.859375 C 21.515625 -17.679688 21.804688 -17.390625 21.984375 -16.984375 C 22.171875 -16.585938 22.265625 -16.148438 22.265625 -15.671875 C 22.265625 -14.773438 21.976562 -13.992188 21.40625 -13.328125 C 20.832031 -12.660156 20.0625 -12.144531 19.09375 -11.78125 C 18.132812 -11.425781 17.078125 -11.25 15.921875 -11.25 C 17.347656 -10.039062 18.0625 -8.644531 18.0625 -7.0625 C 18.0625 -5.53125 17.691406 -4.191406 16.953125 -3.046875 C 16.210938 -1.910156 15.207031 -1.035156 13.9375 -0.421875 C 12.664062 0.191406 11.242188 0.5 9.671875 0.5 Z M 9.671875 0.5 "/></g></g></g><g fill="#000000" fill-opacity="1"><g transform="translate(158.194722, 103.268609)"><g/></g></g><g fill="#000000" fill-opacity="1"><g transform="translate(163.735999, 103.268609)"><g><path d="M 2.40625 0.34375 C 2.257812 0.34375 2.144531 0.296875 2.0625 0.203125 C 1.976562 0.117188 1.9375 0 1.9375 -0.15625 L 1.9375 -14.65625 C 1.9375 -15.082031 1.921875 -15.394531 1.890625 -15.59375 C 1.867188 -15.800781 1.765625 -15.976562 1.578125 -16.125 C 1.398438 -16.269531 1.097656 -16.34375 0.671875 -16.34375 C 0.472656 -16.34375 0.320312 -16.367188 0.21875 -16.421875 C 0.125 -16.484375 0.078125 -16.625 0.078125 -16.84375 C 0.078125 -16.945312 0.109375 -17.039062 0.171875 -17.125 C 0.234375 -17.21875 0.332031 -17.273438 0.46875 -17.296875 C 1.507812 -17.441406 2.40625 -17.65625 3.15625 -17.9375 C 3.382812 -18.019531 3.570312 -18.070312 3.71875 -18.09375 L 3.796875 -18.09375 C 4.066406 -18.09375 4.203125 -17.929688 4.203125 -17.609375 L 4.203125 -10.109375 L 4.265625 -10.109375 C 4.753906 -10.585938 5.300781 -10.945312 5.90625 -11.1875 C 6.507812 -11.425781 7.109375 -11.546875 7.703125 -11.546875 C 8.679688 -11.546875 9.566406 -11.296875 10.359375 -10.796875 C 11.148438 -10.304688 11.773438 -9.617188 12.234375 -8.734375 C 12.691406 -7.847656 12.921875 -6.84375 12.921875 -5.71875 C 12.921875 -4.601562 12.660156 -3.585938 12.140625 -2.671875 C 11.617188 -1.753906 10.914062 -1.03125 10.03125 -0.5 C 9.15625 0.03125 8.222656 0.296875 7.234375 0.296875 C 5.753906 0.296875 4.476562 -0.109375 3.40625 -0.921875 L 3.28125 -0.921875 C 3.21875 -0.785156 3.144531 -0.601562 3.0625 -0.375 C 2.976562 -0.144531 2.882812 0.03125 2.78125 0.15625 C 2.6875 0.28125 2.5625 0.34375 2.40625 0.34375 Z M 7 -0.546875 C 8.007812 -0.546875 8.828125 -1.003906 9.453125 -1.921875 C 10.078125 -2.835938 10.390625 -4.066406 10.390625 -5.609375 C 10.390625 -6.898438 10.085938 -8.003906 9.484375 -8.921875 C 8.890625 -9.847656 8.003906 -10.3125 6.828125 -10.3125 C 5.785156 -10.3125 4.910156 -9.929688 4.203125 -9.171875 L 4.203125 -2.609375 C 4.242188 -2.347656 4.382812 -2.050781 4.625 -1.71875 C 4.875 -1.394531 5.195312 -1.117188 5.59375 -0.890625 C 6 -0.660156 6.46875 -0.546875 7 -0.546875 Z M 7 -0.546875 "/></g></g></g><g fill="#000000" fill-opacity="1"><g transform="translate(177.67616, 103.268609)"><g><path d="M 6.828125 0.296875 C 5.585938 0.296875 4.53125 0.03125 3.65625 -0.5 C 2.789062 -1.03125 2.132812 -1.75 1.6875 -2.65625 C 1.238281 -3.570312 1.015625 -4.582031 1.015625 -5.6875 C 1.015625 -6.664062 1.242188 -7.601562 1.703125 -8.5 C 2.160156 -9.40625 2.8125 -10.140625 3.65625 -10.703125 C 4.5 -11.265625 5.46875 -11.546875 6.5625 -11.546875 C 8.03125 -11.546875 9.160156 -11.171875 9.953125 -10.421875 C 10.753906 -9.671875 11.210938 -8.65625 11.328125 -7.375 C 11.328125 -6.832031 11.175781 -6.460938 10.875 -6.265625 C 10.582031 -6.066406 10.15625 -5.96875 9.59375 -5.96875 L 3.546875 -5.96875 C 3.546875 -4.425781 3.863281 -3.203125 4.5 -2.296875 C 5.144531 -1.390625 6.140625 -0.9375 7.484375 -0.9375 C 8.191406 -0.9375 8.789062 -1.085938 9.28125 -1.390625 C 9.78125 -1.703125 10.253906 -2.222656 10.703125 -2.953125 C 10.785156 -3.035156 10.867188 -3.078125 10.953125 -3.078125 C 11.066406 -3.078125 11.164062 -3.046875 11.25 -2.984375 C 11.414062 -2.878906 11.5 -2.726562 11.5 -2.53125 C 11.5 -2.4375 11.484375 -2.363281 11.453125 -2.3125 C 10.941406 -1.476562 10.289062 -0.832031 9.5 -0.375 C 8.71875 0.0703125 7.828125 0.296875 6.828125 0.296875 Z M 7.609375 -6.90625 C 8.453125 -6.90625 8.894531 -7.253906 8.9375 -7.953125 C 8.9375 -8.710938 8.726562 -9.359375 8.3125 -9.890625 C 7.90625 -10.421875 7.320312 -10.6875 6.5625 -10.6875 C 5.71875 -10.6875 5.019531 -10.347656 4.46875 -9.671875 C 3.925781 -9.003906 3.617188 -8.082031 3.546875 -6.90625 Z M 7.609375 -6.90625 "/></g></g></g><g fill="#000000" fill-opacity="1"><g transform="translate(190.15025, 103.268609)"><g><path d="M 4.171875 0.296875 C 3.179688 0.296875 2.378906 0.015625 1.765625 -0.546875 C 1.148438 -1.109375 0.84375 -1.8125 0.84375 -2.65625 C 0.84375 -3.695312 1.191406 -4.476562 1.890625 -5 C 2.585938 -5.519531 3.414062 -5.859375 4.375 -6.015625 C 5.332031 -6.179688 6.570312 -6.304688 8.09375 -6.390625 L 8.09375 -8.34375 C 8.09375 -9.15625 7.890625 -9.769531 7.484375 -10.1875 C 7.078125 -10.613281 6.429688 -10.828125 5.546875 -10.828125 C 5.023438 -10.828125 4.570312 -10.671875 4.1875 -10.359375 C 3.8125 -10.046875 3.625 -9.625 3.625 -9.09375 C 3.625 -8.820312 3.6875 -8.597656 3.8125 -8.421875 C 3.9375 -8.253906 4.066406 -8.113281 4.203125 -8 C 4.347656 -7.882812 4.421875 -7.816406 4.421875 -7.796875 C 4.421875 -7.703125 4.316406 -7.578125 4.109375 -7.421875 C 3.898438 -7.265625 3.648438 -7.1875 3.359375 -7.1875 C 2.859375 -7.1875 2.460938 -7.363281 2.171875 -7.71875 C 1.878906 -8.082031 1.734375 -8.515625 1.734375 -9.015625 C 1.734375 -9.878906 2.117188 -10.515625 2.890625 -10.921875 C 3.660156 -11.335938 4.59375 -11.546875 5.6875 -11.546875 C 7.039062 -11.546875 8.144531 -11.289062 9 -10.78125 C 9.851562 -10.269531 10.28125 -9.316406 10.28125 -7.921875 L 10.28125 -2.140625 C 10.300781 -1.785156 10.410156 -1.453125 10.609375 -1.140625 C 10.804688 -0.828125 11.128906 -0.671875 11.578125 -0.671875 C 11.710938 -0.671875 11.804688 -0.644531 11.859375 -0.59375 C 11.921875 -0.539062 11.953125 -0.429688 11.953125 -0.265625 C 11.953125 -0.0664062 11.796875 0.0703125 11.484375 0.15625 C 11.179688 0.25 10.878906 0.296875 10.578125 0.296875 C 9.953125 0.296875 9.398438 0.113281 8.921875 -0.25 C 8.441406 -0.613281 8.164062 -1.101562 8.09375 -1.71875 C 7.75 -1.070312 7.21875 -0.570312 6.5 -0.21875 C 5.78125 0.125 5.003906 0.296875 4.171875 0.296875 Z M 4.96875 -1.046875 C 5.53125 -1.046875 6.050781 -1.1875 6.53125 -1.46875 C 7.007812 -1.75 7.390625 -2.132812 7.671875 -2.625 C 7.953125 -3.113281 8.09375 -3.65625 8.09375 -4.25 L 8.09375 -5.671875 C 6.351562 -5.535156 5.128906 -5.25 4.421875 -4.8125 C 3.710938 -4.382812 3.359375 -3.691406 3.359375 -2.734375 C 3.359375 -1.609375 3.894531 -1.046875 4.96875 -1.046875 Z M 4.96875 -1.046875 "/></g></g></g><g fill="#000000" fill-opacity="1"><g transform="translate(202.450394, 103.268609)"><g><path d="M 5.96875 0.296875 C 4.832031 0.296875 3.929688 -0.0390625 3.265625 -0.71875 C 2.609375 -1.394531 2.28125 -2.289062 2.28125 -3.40625 L 2.28125 -8 C 2.28125 -8.425781 2.269531 -8.738281 2.25 -8.9375 C 2.226562 -9.132812 2.125 -9.304688 1.9375 -9.453125 C 1.757812 -9.609375 1.453125 -9.6875 1.015625 -9.6875 C 0.816406 -9.6875 0.664062 -9.710938 0.5625 -9.765625 C 0.46875 -9.828125 0.421875 -9.96875 0.421875 -10.1875 C 0.421875 -10.28125 0.453125 -10.375 0.515625 -10.46875 C 0.585938 -10.5625 0.6875 -10.617188 0.8125 -10.640625 C 1.863281 -10.785156 2.757812 -11 3.5 -11.28125 C 3.726562 -11.363281 3.921875 -11.410156 4.078125 -11.421875 L 4.15625 -11.421875 C 4.414062 -11.421875 4.546875 -11.265625 4.546875 -10.953125 L 4.546875 -3.421875 C 4.546875 -2.660156 4.785156 -2.078125 5.265625 -1.671875 C 5.742188 -1.265625 6.300781 -1.0625 6.9375 -1.0625 C 7.707031 -1.0625 8.363281 -1.253906 8.90625 -1.640625 C 9.457031 -2.023438 9.828125 -2.40625 10.015625 -2.78125 L 10.015625 -8 C 10.015625 -8.425781 10 -8.738281 9.96875 -8.9375 C 9.945312 -9.132812 9.84375 -9.304688 9.65625 -9.453125 C 9.476562 -9.609375 9.175781 -9.6875 8.75 -9.6875 C 8.550781 -9.6875 8.398438 -9.710938 8.296875 -9.765625 C 8.203125 -9.828125 8.15625 -9.96875 8.15625 -10.1875 C 8.15625 -10.28125 8.1875 -10.375 8.25 -10.46875 C 8.3125 -10.5625 8.410156 -10.617188 8.546875 -10.640625 C 9.585938 -10.785156 10.484375 -11 11.234375 -11.28125 C 11.460938 -11.363281 11.648438 -11.410156 11.796875 -11.421875 L 11.875 -11.421875 C 12.132812 -11.421875 12.265625 -11.265625 12.265625 -10.953125 L 12.265625 -2.359375 C 12.265625 -1.378906 12.921875 -0.890625 14.234375 -0.890625 C 14.515625 -0.890625 14.65625 -0.734375 14.65625 -0.421875 C 14.65625 -0.191406 14.515625 -0.0507812 14.234375 0 L 10.234375 0.265625 C 10.117188 0.265625 10.050781 0.226562 10.03125 0.15625 C 10.019531 0.0820312 10.015625 -0.0390625 10.015625 -0.21875 L 10.015625 -1.609375 L 9.96875 -1.609375 C 9.476562 -1.160156 9.082031 -0.816406 8.78125 -0.578125 C 8.488281 -0.335938 8.109375 -0.132812 7.640625 0.03125 C 7.171875 0.207031 6.613281 0.296875 5.96875 0.296875 Z M 5.96875 0.296875 "/></g></g></g><g fill="#000000" fill-opacity="1"><g transform="translate(217.260253, 103.268609)"><g><path d="M 5.359375 0.421875 C 4.554688 0.421875 3.863281 0.125 3.28125 -0.46875 C 2.695312 -1.0625 2.40625 -1.914062 2.40625 -3.03125 L 2.40625 -10.328125 L 0.96875 -10.28125 C 0.863281 -10.28125 0.78125 -10.328125 0.71875 -10.421875 C 0.65625 -10.515625 0.625 -10.617188 0.625 -10.734375 C 0.625 -10.878906 0.648438 -11.003906 0.703125 -11.109375 C 0.765625 -11.222656 0.851562 -11.285156 0.96875 -11.296875 C 1.550781 -11.421875 2.003906 -11.609375 2.328125 -11.859375 C 2.648438 -12.117188 2.882812 -12.398438 3.03125 -12.703125 C 3.175781 -13.015625 3.359375 -13.484375 3.578125 -14.109375 C 3.660156 -14.328125 3.84375 -14.4375 4.125 -14.4375 C 4.238281 -14.4375 4.351562 -14.40625 4.46875 -14.34375 C 4.582031 -14.289062 4.640625 -14.207031 4.640625 -14.09375 L 4.46875 -11.25 L 7.375 -11.421875 L 7.421875 -11.421875 C 7.640625 -11.421875 7.75 -11.265625 7.75 -10.953125 C 7.75 -10.773438 7.71875 -10.601562 7.65625 -10.4375 C 7.601562 -10.28125 7.535156 -10.203125 7.453125 -10.203125 L 4.671875 -10.28125 L 4.671875 -2.734375 C 4.671875 -2.179688 4.78125 -1.722656 5 -1.359375 C 5.226562 -0.992188 5.597656 -0.8125 6.109375 -0.8125 C 6.617188 -0.8125 7.078125 -0.90625 7.484375 -1.09375 C 7.691406 -1.175781 7.820312 -1.21875 7.875 -1.21875 C 7.988281 -1.21875 8.078125 -1.171875 8.140625 -1.078125 C 8.210938 -0.984375 8.28125 -0.863281 8.34375 -0.71875 C 8.363281 -0.6875 8.375 -0.644531 8.375 -0.59375 C 8.375 -0.53125 8.320312 -0.457031 8.21875 -0.375 C 7.738281 -0.0625 7.285156 0.144531 6.859375 0.25 C 6.441406 0.363281 5.941406 0.421875 5.359375 0.421875 Z M 5.359375 0.421875 "/></g></g></g><g fill="#000000" fill-opacity="1"><g transform="translate(226.677946, 103.268609)"><g><path d="M 2.390625 5.421875 C 1.671875 5.421875 1.035156 5.191406 0.484375 4.734375 C -0.0664062 4.273438 -0.34375 3.734375 -0.34375 3.109375 C -0.34375 2.359375 -0.140625 1.878906 0.265625 1.671875 C 0.679688 1.460938 1.003906 1.359375 1.234375 1.359375 C 1.523438 1.359375 1.757812 1.414062 1.9375 1.53125 C 2.125 1.65625 2.21875 1.765625 2.21875 1.859375 C 2.21875 1.890625 2.148438 1.972656 2.015625 2.109375 C 1.878906 2.242188 1.8125 2.476562 1.8125 2.8125 C 1.8125 3.132812 1.914062 3.421875 2.125 3.671875 C 2.332031 3.921875 2.625 4.046875 3 4.046875 C 4.050781 4.046875 5.070312 2.976562 6.0625 0.84375 C 6.125 0.613281 6.15625 0.441406 6.15625 0.328125 C 6.15625 0.160156 6.113281 -0.046875 6.03125 -0.296875 C 5.707031 -1.046875 5.15625 -2.429688 4.375 -4.453125 C 3.695312 -6.253906 3.140625 -7.628906 2.703125 -8.578125 C 2.421875 -9.222656 2.15625 -9.664062 1.90625 -9.90625 C 1.664062 -10.144531 1.300781 -10.296875 0.8125 -10.359375 C 0.769531 -10.378906 0.679688 -10.394531 0.546875 -10.40625 C 0.410156 -10.425781 0.328125 -10.46875 0.296875 -10.53125 C 0.265625 -10.601562 0.25 -10.71875 0.25 -10.875 C 0.25 -11.070312 0.300781 -11.195312 0.40625 -11.25 C 0.519531 -11.300781 0.65625 -11.332031 0.8125 -11.34375 C 0.96875 -11.351562 1.070312 -11.359375 1.125 -11.359375 C 2.132812 -11.398438 2.925781 -11.25 3.5 -10.90625 C 4.082031 -10.570312 4.5625 -9.984375 4.9375 -9.140625 C 5.300781 -8.296875 5.625 -7.492188 5.90625 -6.734375 C 6.570312 -4.941406 7.113281 -3.632812 7.53125 -2.8125 L 7.609375 -2.8125 L 10.03125 -9.3125 C 10.113281 -9.59375 10.15625 -9.789062 10.15625 -9.90625 C 10.15625 -10.09375 10.070312 -10.21875 9.90625 -10.28125 C 9.75 -10.351562 9.476562 -10.390625 9.09375 -10.390625 L 8.9375 -10.390625 C 8.8125 -10.390625 8.71875 -10.410156 8.65625 -10.453125 C 8.601562 -10.503906 8.566406 -10.628906 8.546875 -10.828125 C 8.546875 -10.941406 8.570312 -11.050781 8.625 -11.15625 C 8.6875 -11.269531 8.773438 -11.328125 8.890625 -11.328125 C 9.835938 -11.273438 10.640625 -11.25 11.296875 -11.25 C 11.566406 -11.25 12.082031 -11.265625 12.84375 -11.296875 L 13.359375 -11.328125 C 13.484375 -11.328125 13.578125 -11.269531 13.640625 -11.15625 C 13.703125 -11.050781 13.734375 -10.941406 13.734375 -10.828125 C 13.722656 -10.628906 13.679688 -10.503906 13.609375 -10.453125 C 13.546875 -10.410156 13.445312 -10.390625 13.3125 -10.390625 C 12.695312 -10.390625 12.222656 -10.285156 11.890625 -10.078125 C 11.566406 -9.878906 11.289062 -9.492188 11.0625 -8.921875 C 10.675781 -7.972656 10.0625 -6.453125 9.21875 -4.359375 C 8.375 -2.273438 7.742188 -0.738281 7.328125 0.25 C 6.734375 1.675781 6.035156 2.894531 5.234375 3.90625 C 4.441406 4.914062 3.492188 5.421875 2.390625 5.421875 Z M 2.390625 5.421875 "/></g></g></g></g></g></svg>