<svg xmlns="http://www.w3.org/2000/svg" xmlns:xlink="http://www.w3.org/1999/xlink" width="500" zoomAndPan="magnify" viewBox="0 0 375 374.999991" height="500" preserveAspectRatio="xMidYMid meet" version="1.0"><defs><g/></defs><rect x="-37.5" width="450" fill="#ffffff" y="-37.499999" height="449.999989" fill-opacity="1"/><rect x="-37.5" width="450" fill="#ffffff" y="-37.499999" height="449.999989" fill-opacity="1"/><g fill="#2d621e" fill-opacity="1"><g transform="translate(39.620447, 214.252457)"><g><path d="M 62.921875 -56.4375 C 61.054688 -56.332031 59.710938 -56.113281 58.890625 -55.78125 C 58.078125 -55.457031 57.519531 -54.828125 57.21875 -53.890625 C 56.914062 -52.960938 56.765625 -51.460938 56.765625 -49.390625 L 56.765625 -8.703125 C 56.765625 -6.617188 56.914062 -5.113281 57.21875 -4.1875 C 57.519531 -3.257812 58.078125 -2.628906 58.890625 -2.296875 C 59.710938 -1.972656 61.054688 -1.753906 62.921875 -1.640625 L 62.921875 0 C 60.242188 -0.164062 56.085938 -0.25 50.453125 -0.25 C 44.929688 -0.25 40.640625 -0.164062 37.578125 0 L 37.578125 -1.640625 C 39.378906 -1.753906 40.703125 -1.972656 41.546875 -2.296875 C 42.398438 -2.628906 42.972656 -3.257812 43.265625 -4.1875 C 43.566406 -5.113281 43.71875 -6.617188 43.71875 -8.703125 L 43.71875 -28.390625 L 21.984375 -28.390625 L 21.984375 -8.703125 C 21.984375 -6.617188 22.132812 -5.113281 22.4375 -4.1875 C 22.738281 -3.257812 23.296875 -2.628906 24.109375 -2.296875 C 24.929688 -1.972656 26.273438 -1.753906 28.140625 -1.640625 L 28.140625 0 C 25.179688 -0.164062 21.050781 -0.25 15.75 -0.25 C 9.894531 -0.25 5.578125 -0.164062 2.796875 0 L 2.796875 -1.640625 C 4.597656 -1.753906 5.921875 -1.972656 6.765625 -2.296875 C 7.617188 -2.628906 8.191406 -3.257812 8.484375 -4.1875 C 8.785156 -5.113281 8.9375 -6.617188 8.9375 -8.703125 L 8.9375 -49.390625 C 8.9375 -51.460938 8.785156 -52.960938 8.484375 -53.890625 C 8.191406 -54.828125 7.617188 -55.457031 6.765625 -55.78125 C 5.921875 -56.113281 4.597656 -56.332031 2.796875 -56.4375 L 2.796875 -58.078125 C 5.578125 -57.910156 9.894531 -57.828125 15.75 -57.828125 C 21.050781 -57.828125 25.179688 -57.910156 28.140625 -58.078125 L 28.140625 -56.4375 C 26.273438 -56.332031 24.929688 -56.113281 24.109375 -55.78125 C 23.296875 -55.457031 22.738281 -54.828125 22.4375 -53.890625 C 22.132812 -52.960938 21.984375 -51.460938 21.984375 -49.390625 L 21.984375 -30.03125 L 43.71875 -30.03125 L 43.71875 -49.390625 C 43.71875 -51.460938 43.566406 -52.960938 43.265625 -53.890625 C 42.972656 -54.828125 42.398438 -55.457031 41.546875 -55.78125 C 40.703125 -56.113281 39.378906 -56.332031 37.578125 -56.4375 L 37.578125 -58.078125 C 40.640625 -57.910156 44.929688 -57.828125 50.453125 -57.828125 C 56.085938 -57.828125 60.242188 -57.910156 62.921875 -58.078125 Z M 62.921875 -56.4375 "/></g></g></g><g fill="#2d621e" fill-opacity="1"><g transform="translate(105.655611, 214.252457)"><g><path d="M 47.75 -12.46875 C 47.75 -7.4375 47.9375 -3.28125 48.3125 0 C 44.59375 -0.164062 38.332031 -0.25 29.53125 -0.25 C 17.613281 -0.25 8.703125 -0.164062 2.796875 0 L 2.796875 -1.640625 C 4.597656 -1.753906 5.921875 -1.972656 6.765625 -2.296875 C 7.617188 -2.628906 8.191406 -3.257812 8.484375 -4.1875 C 8.785156 -5.113281 8.9375 -6.617188 8.9375 -8.703125 L 8.9375 -49.390625 C 8.9375 -51.460938 8.785156 -52.960938 8.484375 -53.890625 C 8.191406 -54.828125 7.617188 -55.457031 6.765625 -55.78125 C 5.921875 -56.113281 4.597656 -56.332031 2.796875 -56.4375 L 2.796875 -58.078125 C 8.703125 -57.910156 17.613281 -57.828125 29.53125 -57.828125 C 37.570312 -57.828125 43.285156 -57.910156 46.671875 -58.078125 C 46.296875 -53.535156 46.109375 -49.488281 46.109375 -45.9375 C 46.109375 -43.53125 46.1875 -41.671875 46.34375 -40.359375 L 44.46875 -40.359375 C 43.644531 -46.210938 42.164062 -50.3125 40.03125 -52.65625 C 37.894531 -55.007812 34.890625 -56.1875 31.015625 -56.1875 L 27.640625 -56.1875 C 25.953125 -56.1875 24.722656 -56.050781 23.953125 -55.78125 C 23.191406 -55.507812 22.671875 -54.976562 22.390625 -54.1875 C 22.117188 -53.394531 21.984375 -52.125 21.984375 -50.375 L 21.984375 -30.03125 L 24.609375 -30.03125 C 27.503906 -30.03125 29.703125 -31.09375 31.203125 -33.21875 C 32.710938 -35.351562 33.769531 -37.898438 34.375 -40.859375 L 36.265625 -40.859375 C 36.097656 -38.554688 36.015625 -35.984375 36.015625 -33.140625 L 36.015625 -29.203125 C 36.015625 -26.410156 36.175781 -22.53125 36.5 -17.5625 L 34.625 -17.5625 C 33.46875 -24.78125 30.128906 -28.390625 24.609375 -28.390625 L 21.984375 -28.390625 L 21.984375 -7.71875 C 21.984375 -5.96875 22.117188 -4.691406 22.390625 -3.890625 C 22.671875 -3.097656 23.191406 -2.566406 23.953125 -2.296875 C 24.722656 -2.023438 25.953125 -1.890625 27.640625 -1.890625 L 31.671875 -1.890625 C 35.546875 -1.890625 38.671875 -3.210938 41.046875 -5.859375 C 43.429688 -8.515625 45.117188 -13.015625 46.109375 -19.359375 L 47.984375 -19.359375 C 47.828125 -17.554688 47.75 -15.257812 47.75 -12.46875 Z M 47.75 -12.46875 "/></g></g></g><g fill="#2d621e" fill-opacity="1"><g transform="translate(158.073587, 214.252457)"><g><path d="M 28.140625 -58.078125 C 38.804688 -58.078125 46.789062 -55.65625 52.09375 -50.8125 C 57.394531 -45.976562 60.046875 -38.941406 60.046875 -29.703125 C 60.046875 -23.734375 58.742188 -18.519531 56.140625 -14.0625 C 53.546875 -9.613281 49.800781 -6.15625 44.90625 -3.6875 C 40.019531 -1.226562 34.1875 0 27.40625 0 L 22.3125 -0.078125 C 19.144531 -0.191406 16.847656 -0.25 15.421875 -0.25 C 9.785156 -0.25 5.578125 -0.164062 2.796875 0 L 2.796875 -1.640625 C 4.597656 -1.753906 5.921875 -1.972656 6.765625 -2.296875 C 7.617188 -2.628906 8.191406 -3.257812 8.484375 -4.1875 C 8.785156 -5.113281 8.9375 -6.617188 8.9375 -8.703125 L 8.9375 -49.390625 C 8.9375 -51.460938 8.785156 -52.960938 8.484375 -53.890625 C 8.191406 -54.828125 7.617188 -55.457031 6.765625 -55.78125 C 5.921875 -56.113281 4.597656 -56.332031 2.796875 -56.4375 L 2.796875 -58.078125 C 5.085938 -57.910156 8.394531 -57.828125 12.71875 -57.828125 L 15.265625 -57.828125 L 18.546875 -57.921875 C 23.023438 -58.023438 26.222656 -58.078125 28.140625 -58.078125 Z M 28.0625 -56.609375 C 26.363281 -56.609375 25.085938 -56.414062 24.234375 -56.03125 C 23.390625 -55.644531 22.800781 -54.957031 22.46875 -53.96875 C 22.144531 -52.988281 21.984375 -51.515625 21.984375 -49.546875 L 21.984375 -8.53125 C 21.984375 -6.5625 22.144531 -5.082031 22.46875 -4.09375 C 22.800781 -3.113281 23.390625 -2.429688 24.234375 -2.046875 C 25.085938 -1.671875 26.390625 -1.484375 28.140625 -1.484375 C 34.753906 -1.484375 39.457031 -3.789062 42.25 -8.40625 C 45.039062 -13.03125 46.4375 -20.019531 46.4375 -29.375 C 46.4375 -38.71875 45 -45.59375 42.125 -50 C 39.25 -54.40625 34.5625 -56.609375 28.0625 -56.609375 Z M 28.0625 -56.609375 "/></g></g></g><g fill="#2d621e" fill-opacity="1"><g transform="translate(222.14, 214.252457)"><g><path d="M 58.40625 -3.609375 C 56.925781 -1.910156 55.335938 -0.691406 53.640625 0.046875 C 51.953125 0.785156 49.90625 1.15625 47.5 1.15625 C 44.320312 1.15625 41.816406 0.484375 39.984375 -0.859375 C 38.160156 -2.203125 36.972656 -4.488281 36.421875 -7.71875 L 34.953125 -15.921875 C 34.234375 -19.910156 33.367188 -22.847656 32.359375 -24.734375 C 31.347656 -26.617188 29.664062 -27.5625 27.3125 -27.5625 L 21.984375 -27.5625 L 21.984375 -8.703125 C 21.984375 -6.617188 22.132812 -5.113281 22.4375 -4.1875 C 22.738281 -3.257812 23.296875 -2.628906 24.109375 -2.296875 C 24.929688 -1.972656 26.273438 -1.753906 28.140625 -1.640625 L 28.140625 0 C 25.179688 -0.164062 21.050781 -0.25 15.75 -0.25 C 9.894531 -0.25 5.578125 -0.164062 2.796875 0 L 2.796875 -1.640625 C 4.597656 -1.753906 5.921875 -1.972656 6.765625 -2.296875 C 7.617188 -2.628906 8.191406 -3.257812 8.484375 -4.1875 C 8.785156 -5.113281 8.9375 -6.617188 8.9375 -8.703125 L 8.9375 -49.390625 C 8.9375 -51.460938 8.785156 -52.960938 8.484375 -53.890625 C 8.191406 -54.828125 7.617188 -55.457031 6.765625 -55.78125 C 5.921875 -56.113281 4.597656 -56.332031 2.796875 -56.4375 L 2.796875 -58.078125 C 5.578125 -57.910156 9.734375 -57.828125 15.265625 -57.828125 L 24.359375 -57.921875 C 25.453125 -57.972656 26.710938 -58 28.140625 -58 C 35.679688 -58 41.351562 -56.765625 45.15625 -54.296875 C 48.957031 -51.835938 50.859375 -48.3125 50.859375 -43.71875 C 50.859375 -39.84375 49.4375 -36.425781 46.59375 -33.46875 C 43.75 -30.519531 39.046875 -28.660156 32.484375 -27.890625 C 37.410156 -27.453125 41.078125 -26.382812 43.484375 -24.6875 C 45.890625 -23 47.445312 -20.457031 48.15625 -17.0625 L 50.046875 -8.609375 C 50.484375 -6.421875 50.988281 -4.890625 51.5625 -4.015625 C 52.132812 -3.140625 52.941406 -2.703125 53.984375 -2.703125 C 54.640625 -2.765625 55.195312 -2.929688 55.65625 -3.203125 C 56.125 -3.472656 56.660156 -3.9375 57.265625 -4.59375 Z M 27.078125 -56.4375 C 25.597656 -56.4375 24.515625 -56.242188 23.828125 -55.859375 C 23.148438 -55.484375 22.671875 -54.800781 22.390625 -53.8125 C 22.117188 -52.832031 21.984375 -51.359375 21.984375 -49.390625 L 21.984375 -29.203125 L 25.515625 -29.203125 C 29.992188 -29.203125 33.066406 -30.390625 34.734375 -32.765625 C 36.410156 -35.148438 37.25 -38.503906 37.25 -42.828125 C 37.25 -47.304688 36.453125 -50.691406 34.859375 -52.984375 C 33.273438 -55.285156 30.679688 -56.4375 27.078125 -56.4375 Z M 27.078125 -56.4375 "/></g></g></g><g fill="#2d621e" fill-opacity="1"><g transform="translate(279.315789, 214.252457)"><g><path d="M 50.125 -6.890625 C 50.832031 -5.085938 51.648438 -3.773438 52.578125 -2.953125 C 53.515625 -2.128906 54.421875 -1.691406 55.296875 -1.640625 L 55.296875 0 C 52.015625 -0.164062 47.859375 -0.25 42.828125 -0.25 C 37.242188 -0.25 33.085938 -0.164062 30.359375 0 L 30.359375 -1.640625 C 32.429688 -1.753906 33.90625 -2.015625 34.78125 -2.421875 C 35.65625 -2.828125 36.09375 -3.550781 36.09375 -4.59375 C 36.09375 -5.582031 35.765625 -6.894531 35.109375 -8.53125 L 30.1875 -21.984375 L 12.3125 -21.984375 L 10.171875 -16.328125 C 8.640625 -12.390625 7.875 -9.351562 7.875 -7.21875 C 7.875 -5.195312 8.488281 -3.789062 9.71875 -3 C 10.945312 -2.207031 12.765625 -1.753906 15.171875 -1.640625 L 15.171875 0 C 11.453125 -0.164062 8.0625 -0.25 5 -0.25 C 2.488281 -0.25 0.410156 -0.164062 -1.234375 0 L -1.234375 -1.640625 C 1.453125 -2.128906 3.804688 -5 5.828125 -10.25 L 24.53125 -58.25 C 25.132812 -58.1875 26.09375 -58.15625 27.40625 -58.15625 C 28.71875 -58.15625 29.644531 -58.1875 30.1875 -58.25 Z M 29.609375 -23.625 L 21.5 -45.78125 L 12.96875 -23.625 Z M 29.609375 -23.625 "/></g></g></g><g fill="#2d621e" fill-opacity="1"><g transform="translate(80.007025, 242.942079)"><g><path d="M 3.09375 -7.703125 L 0.046875 -7.703125 L 0.046875 -9.5 L 8.328125 -9.5 L 8.328125 -7.703125 L 5.296875 -7.703125 L 5.296875 0 L 3.09375 0 Z M 3.09375 -7.703125 "/></g></g></g><g fill="#2d621e" fill-opacity="1"><g transform="translate(91.832662, 242.942079)"><g><path d="M 9.828125 -9.5 L 9.828125 0 L 7.640625 0 L 7.640625 -3.890625 L 3.328125 -3.890625 L 3.328125 0 L 1.125 0 L 1.125 -9.5 L 3.328125 -9.5 L 3.328125 -5.75 L 7.640625 -5.75 L 7.640625 -9.5 Z M 9.828125 -9.5 "/></g></g></g><g fill="#2d621e" fill-opacity="1"><g transform="translate(106.234432, 242.942079)"><g><path d="M 8.46875 -1.765625 L 8.46875 0 L 1.125 0 L 1.125 -9.5 L 8.296875 -9.5 L 8.296875 -7.734375 L 3.3125 -7.734375 L 3.3125 -5.671875 L 7.71875 -5.671875 L 7.71875 -3.953125 L 3.3125 -3.953125 L 3.3125 -1.765625 Z M 8.46875 -1.765625 "/></g></g></g><g fill="#2d621e" fill-opacity="1"><g transform="translate(118.778678, 242.942079)"><g/></g></g><g fill="#2d621e" fill-opacity="1"><g transform="translate(126.062201, 242.942079)"><g><path d="M 4.25 0.15625 C 3.5 0.15625 2.769531 0.0546875 2.0625 -0.140625 C 1.363281 -0.347656 0.800781 -0.613281 0.375 -0.9375 L 1.125 -2.59375 C 1.53125 -2.289062 2.015625 -2.046875 2.578125 -1.859375 C 3.140625 -1.679688 3.703125 -1.59375 4.265625 -1.59375 C 4.878906 -1.59375 5.335938 -1.6875 5.640625 -1.875 C 5.941406 -2.0625 6.09375 -2.3125 6.09375 -2.625 C 6.09375 -2.84375 6.003906 -3.023438 5.828125 -3.171875 C 5.648438 -3.328125 5.421875 -3.445312 5.140625 -3.53125 C 4.867188 -3.625 4.5 -3.726562 4.03125 -3.84375 C 3.300781 -4.007812 2.707031 -4.175781 2.25 -4.34375 C 1.789062 -4.519531 1.394531 -4.796875 1.0625 -5.171875 C 0.726562 -5.554688 0.5625 -6.066406 0.5625 -6.703125 C 0.5625 -7.253906 0.710938 -7.753906 1.015625 -8.203125 C 1.316406 -8.648438 1.765625 -9.003906 2.359375 -9.265625 C 2.960938 -9.523438 3.703125 -9.65625 4.578125 -9.65625 C 5.179688 -9.65625 5.769531 -9.582031 6.34375 -9.4375 C 6.925781 -9.289062 7.429688 -9.082031 7.859375 -8.8125 L 7.1875 -7.140625 C 6.3125 -7.640625 5.4375 -7.890625 4.5625 -7.890625 C 3.945312 -7.890625 3.488281 -7.789062 3.1875 -7.59375 C 2.894531 -7.394531 2.75 -7.132812 2.75 -6.8125 C 2.75 -6.476562 2.914062 -6.234375 3.25 -6.078125 C 3.59375 -5.921875 4.113281 -5.765625 4.8125 -5.609375 C 5.539062 -5.441406 6.132812 -5.269531 6.59375 -5.09375 C 7.050781 -4.925781 7.441406 -4.65625 7.765625 -4.28125 C 8.097656 -3.914062 8.265625 -3.414062 8.265625 -2.78125 C 8.265625 -2.238281 8.113281 -1.742188 7.8125 -1.296875 C 7.507812 -0.847656 7.054688 -0.492188 6.453125 -0.234375 C 5.847656 0.0234375 5.113281 0.15625 4.25 0.15625 Z M 4.25 0.15625 "/></g></g></g><g fill="#2d621e" fill-opacity="1"><g transform="translate(138.159006, 242.942079)"><g><path d="M 5.234375 -9.5 C 6.078125 -9.5 6.804688 -9.359375 7.421875 -9.078125 C 8.046875 -8.796875 8.523438 -8.394531 8.859375 -7.875 C 9.191406 -7.363281 9.359375 -6.753906 9.359375 -6.046875 C 9.359375 -5.347656 9.191406 -4.738281 8.859375 -4.21875 C 8.523438 -3.695312 8.046875 -3.300781 7.421875 -3.03125 C 6.804688 -2.757812 6.078125 -2.625 5.234375 -2.625 L 3.328125 -2.625 L 3.328125 0 L 1.125 0 L 1.125 -9.5 Z M 5.109375 -4.40625 C 5.773438 -4.40625 6.28125 -4.546875 6.625 -4.828125 C 6.96875 -5.117188 7.140625 -5.523438 7.140625 -6.046875 C 7.140625 -6.578125 6.96875 -6.984375 6.625 -7.265625 C 6.28125 -7.554688 5.773438 -7.703125 5.109375 -7.703125 L 3.328125 -7.703125 L 3.328125 -4.40625 Z M 5.109375 -4.40625 "/></g></g></g><g fill="#2d621e" fill-opacity="1"><g transform="translate(151.530316, 242.942079)"><g><path d="M 7.375 -2.03125 L 2.96875 -2.03125 L 2.125 0 L -0.125 0 L 4.109375 -9.5 L 6.28125 -9.5 L 10.53125 0 L 8.21875 0 Z M 6.6875 -3.703125 L 5.1875 -7.34375 L 3.671875 -3.703125 Z M 6.6875 -3.703125 "/></g></g></g><g fill="#2d621e" fill-opacity="1"><g transform="translate(165.362617, 242.942079)"><g/></g></g><g fill="#2d621e" fill-opacity="1"><g transform="translate(172.64614, 242.942079)"><g><path d="M 8.46875 -1.765625 L 8.46875 0 L 1.125 0 L 1.125 -9.5 L 8.296875 -9.5 L 8.296875 -7.734375 L 3.3125 -7.734375 L 3.3125 -5.671875 L 7.71875 -5.671875 L 7.71875 -3.953125 L 3.3125 -3.953125 L 3.3125 -1.765625 Z M 8.46875 -1.765625 "/></g></g></g><g fill="#2d621e" fill-opacity="1"><g transform="translate(185.190386, 242.942079)"><g><path d="M 7.109375 0 L 4.8125 -3.296875 L 2.5625 0 L 0.046875 0 L 3.546875 -4.828125 L 0.21875 -9.5 L 2.71875 -9.5 L 4.890625 -6.421875 L 7.03125 -9.5 L 9.40625 -9.5 L 6.109375 -4.90625 L 9.640625 0 Z M 7.109375 0 "/></g></g></g><g fill="#2d621e" fill-opacity="1"><g transform="translate(198.317651, 242.942079)"><g><path d="M 5.234375 -9.5 C 6.078125 -9.5 6.804688 -9.359375 7.421875 -9.078125 C 8.046875 -8.796875 8.523438 -8.394531 8.859375 -7.875 C 9.191406 -7.363281 9.359375 -6.753906 9.359375 -6.046875 C 9.359375 -5.347656 9.191406 -4.738281 8.859375 -4.21875 C 8.523438 -3.695312 8.046875 -3.300781 7.421875 -3.03125 C 6.804688 -2.757812 6.078125 -2.625 5.234375 -2.625 L 3.328125 -2.625 L 3.328125 0 L 1.125 0 L 1.125 -9.5 Z M 5.109375 -4.40625 C 5.773438 -4.40625 6.28125 -4.546875 6.625 -4.828125 C 6.96875 -5.117188 7.140625 -5.523438 7.140625 -6.046875 C 7.140625 -6.578125 6.96875 -6.984375 6.625 -7.265625 C 6.28125 -7.554688 5.773438 -7.703125 5.109375 -7.703125 L 3.328125 -7.703125 L 3.328125 -4.40625 Z M 5.109375 -4.40625 "/></g></g></g><g fill="#2d621e" fill-opacity="1"><g transform="translate(211.688961, 242.942079)"><g><path d="M 8.46875 -1.765625 L 8.46875 0 L 1.125 0 L 1.125 -9.5 L 8.296875 -9.5 L 8.296875 -7.734375 L 3.3125 -7.734375 L 3.3125 -5.671875 L 7.71875 -5.671875 L 7.71875 -3.953125 L 3.3125 -3.953125 L 3.3125 -1.765625 Z M 8.46875 -1.765625 "/></g></g></g><g fill="#2d621e" fill-opacity="1"><g transform="translate(224.233207, 242.942079)"><g><path d="M 7.171875 0 L 5.34375 -2.640625 L 3.328125 -2.640625 L 3.328125 0 L 1.125 0 L 1.125 -9.5 L 5.234375 -9.5 C 6.078125 -9.5 6.804688 -9.359375 7.421875 -9.078125 C 8.046875 -8.796875 8.523438 -8.394531 8.859375 -7.875 C 9.191406 -7.363281 9.359375 -6.753906 9.359375 -6.046875 C 9.359375 -5.335938 9.1875 -4.726562 8.84375 -4.21875 C 8.507812 -3.707031 8.03125 -3.316406 7.40625 -3.046875 L 9.53125 0 Z M 7.140625 -6.046875 C 7.140625 -6.578125 6.96875 -6.984375 6.625 -7.265625 C 6.28125 -7.554688 5.773438 -7.703125 5.109375 -7.703125 L 3.328125 -7.703125 L 3.328125 -4.390625 L 5.109375 -4.390625 C 5.773438 -4.390625 6.28125 -4.535156 6.625 -4.828125 C 6.96875 -5.117188 7.140625 -5.523438 7.140625 -6.046875 Z M 7.140625 -6.046875 "/></g></g></g><g fill="#2d621e" fill-opacity="1"><g transform="translate(237.645201, 242.942079)"><g><path d="M 1.125 -9.5 L 3.328125 -9.5 L 3.328125 0 L 1.125 0 Z M 1.125 -9.5 "/></g></g></g><g fill="#2d621e" fill-opacity="1"><g transform="translate(245.538855, 242.942079)"><g><path d="M 8.46875 -1.765625 L 8.46875 0 L 1.125 0 L 1.125 -9.5 L 8.296875 -9.5 L 8.296875 -7.734375 L 3.3125 -7.734375 L 3.3125 -5.671875 L 7.71875 -5.671875 L 7.71875 -3.953125 L 3.3125 -3.953125 L 3.3125 -1.765625 Z M 8.46875 -1.765625 "/></g></g></g><g fill="#2d621e" fill-opacity="1"><g transform="translate(258.0831, 242.942079)"><g><path d="M 9.828125 -9.5 L 9.828125 0 L 8.03125 0 L 3.296875 -5.765625 L 3.296875 0 L 1.125 0 L 1.125 -9.5 L 2.9375 -9.5 L 7.65625 -3.734375 L 7.65625 -9.5 Z M 9.828125 -9.5 "/></g></g></g><g fill="#2d621e" fill-opacity="1"><g transform="translate(272.484871, 242.942079)"><g><path d="M 5.671875 0.15625 C 4.703125 0.15625 3.828125 -0.0507812 3.046875 -0.46875 C 2.265625 -0.882812 1.648438 -1.46875 1.203125 -2.21875 C 0.753906 -2.96875 0.53125 -3.8125 0.53125 -4.75 C 0.53125 -5.6875 0.753906 -6.523438 1.203125 -7.265625 C 1.648438 -8.015625 2.265625 -8.597656 3.046875 -9.015625 C 3.828125 -9.441406 4.707031 -9.65625 5.6875 -9.65625 C 6.507812 -9.65625 7.25 -9.507812 7.90625 -9.21875 C 8.570312 -8.925781 9.132812 -8.507812 9.59375 -7.96875 L 8.171875 -6.671875 C 7.535156 -7.410156 6.742188 -7.78125 5.796875 -7.78125 C 5.203125 -7.78125 4.675781 -7.648438 4.21875 -7.390625 C 3.757812 -7.140625 3.398438 -6.78125 3.140625 -6.3125 C 2.878906 -5.851562 2.75 -5.332031 2.75 -4.75 C 2.75 -4.15625 2.878906 -3.628906 3.140625 -3.171875 C 3.398438 -2.710938 3.757812 -2.351562 4.21875 -2.09375 C 4.675781 -1.832031 5.203125 -1.703125 5.796875 -1.703125 C 6.742188 -1.703125 7.535156 -2.078125 8.171875 -2.828125 L 9.59375 -1.53125 C 9.132812 -0.976562 8.570312 -0.554688 7.90625 -0.265625 C 7.238281 0.015625 6.492188 0.15625 5.671875 0.15625 Z M 5.671875 0.15625 "/></g></g></g><g fill="#2d621e" fill-opacity="1"><g transform="translate(285.869743, 242.942079)"><g><path d="M 8.46875 -1.765625 L 8.46875 0 L 1.125 0 L 1.125 -9.5 L 8.296875 -9.5 L 8.296875 -7.734375 L 3.3125 -7.734375 L 3.3125 -5.671875 L 7.71875 -5.671875 L 7.71875 -3.953125 L 3.3125 -3.953125 L 3.3125 -1.765625 Z M 8.46875 -1.765625 "/></g></g></g></svg>