<svg xmlns="http://www.w3.org/2000/svg" xmlns:xlink="http://www.w3.org/1999/xlink" width="500" zoomAndPan="magnify" viewBox="0 0 375 374.999991" height="500" preserveAspectRatio="xMidYMid meet" version="1.0"><defs><g/><clipPath id="9d0562b983"><rect x="0" width="273" y="0" height="102"/></clipPath><clipPath id="aec586eab8"><path d="M 0.160156 2 L 7 2 L 7 11 L 0.160156 11 Z M 0.160156 2 " clip-rule="nonzero"/></clipPath><clipPath id="9c47fc1003"><rect x="0" width="170" y="0" height="15"/></clipPath></defs><g transform="matrix(1, 0, 0, 1, 52, 130)"><g clip-path="url(#9d0562b983)"><g fill="#2d621e" fill-opacity="1"><g transform="translate(0.859706, 81.649603)"><g><path d="M 57.875 -51.90625 C 56.164062 -51.8125 54.929688 -51.613281 54.171875 -51.3125 C 53.421875 -51.007812 52.90625 -50.429688 52.625 -49.578125 C 52.351562 -48.722656 52.21875 -47.335938 52.21875 -45.421875 L 52.21875 -8 C 52.21875 -6.082031 52.351562 -4.695312 52.625 -3.84375 C 52.90625 -2.988281 53.421875 -2.410156 54.171875 -2.109375 C 54.929688 -1.804688 56.164062 -1.609375 57.875 -1.515625 L 57.875 0 C 55.40625 -0.144531 51.582031 -0.21875 46.40625 -0.21875 C 41.320312 -0.21875 37.375 -0.144531 34.5625 0 L 34.5625 -1.515625 C 36.21875 -1.609375 37.4375 -1.804688 38.21875 -2.109375 C 39 -2.410156 39.523438 -2.988281 39.796875 -3.84375 C 40.078125 -4.695312 40.21875 -6.082031 40.21875 -8 L 40.21875 -26.109375 L 20.21875 -26.109375 L 20.21875 -8 C 20.21875 -6.082031 20.351562 -4.695312 20.625 -3.84375 C 20.90625 -2.988281 21.421875 -2.410156 22.171875 -2.109375 C 22.929688 -1.804688 24.164062 -1.609375 25.875 -1.515625 L 25.875 0 C 23.164062 -0.144531 19.367188 -0.21875 14.484375 -0.21875 C 9.097656 -0.21875 5.125 -0.144531 2.5625 0 L 2.5625 -1.515625 C 4.226562 -1.609375 5.445312 -1.804688 6.21875 -2.109375 C 7 -2.410156 7.523438 -2.988281 7.796875 -3.84375 C 8.078125 -4.695312 8.21875 -6.082031 8.21875 -8 L 8.21875 -45.421875 C 8.21875 -47.335938 8.078125 -48.722656 7.796875 -49.578125 C 7.523438 -50.429688 7 -51.007812 6.21875 -51.3125 C 5.445312 -51.613281 4.226562 -51.8125 2.5625 -51.90625 L 2.5625 -53.421875 C 5.125 -53.265625 9.097656 -53.1875 14.484375 -53.1875 C 19.367188 -53.1875 23.164062 -53.265625 25.875 -53.421875 L 25.875 -51.90625 C 24.164062 -51.8125 22.929688 -51.613281 22.171875 -51.3125 C 21.421875 -51.007812 20.90625 -50.429688 20.625 -49.578125 C 20.351562 -48.722656 20.21875 -47.335938 20.21875 -45.421875 L 20.21875 -27.609375 L 40.21875 -27.609375 L 40.21875 -45.421875 C 40.21875 -47.335938 40.078125 -48.722656 39.796875 -49.578125 C 39.523438 -50.429688 39 -51.007812 38.21875 -51.3125 C 37.4375 -51.613281 36.21875 -51.8125 34.5625 -51.90625 L 34.5625 -53.421875 C 37.375 -53.265625 41.320312 -53.1875 46.40625 -53.1875 C 51.582031 -53.1875 55.40625 -53.265625 57.875 -53.421875 Z M 57.875 -51.90625 "/></g></g></g><g fill="#2d621e" fill-opacity="1"><g transform="translate(61.21714, 81.649603)"><g><path d="M 43.90625 -11.46875 C 43.90625 -6.84375 44.082031 -3.019531 44.4375 0 C 41.019531 -0.144531 35.257812 -0.21875 27.15625 -0.21875 C 16.195312 -0.21875 8 -0.144531 2.5625 0 L 2.5625 -1.515625 C 4.226562 -1.609375 5.445312 -1.804688 6.21875 -2.109375 C 7 -2.410156 7.523438 -2.988281 7.796875 -3.84375 C 8.078125 -4.695312 8.21875 -6.082031 8.21875 -8 L 8.21875 -45.421875 C 8.21875 -47.335938 8.078125 -48.722656 7.796875 -49.578125 C 7.523438 -50.429688 7 -51.007812 6.21875 -51.3125 C 5.445312 -51.613281 4.226562 -51.8125 2.5625 -51.90625 L 2.5625 -53.421875 C 8 -53.265625 16.195312 -53.1875 27.15625 -53.1875 C 34.550781 -53.1875 39.8125 -53.265625 42.9375 -53.421875 C 42.582031 -49.242188 42.40625 -45.519531 42.40625 -42.25 C 42.40625 -40.039062 42.476562 -38.332031 42.625 -37.125 L 40.890625 -37.125 C 40.140625 -42.507812 38.78125 -46.28125 36.8125 -48.4375 C 34.851562 -50.601562 32.085938 -51.6875 28.515625 -51.6875 L 25.421875 -51.6875 C 23.867188 -51.6875 22.738281 -51.5625 22.03125 -51.3125 C 21.320312 -51.0625 20.84375 -50.570312 20.59375 -49.84375 C 20.34375 -49.113281 20.21875 -47.941406 20.21875 -46.328125 L 20.21875 -27.609375 L 22.640625 -27.609375 C 25.304688 -27.609375 27.328125 -28.585938 28.703125 -30.546875 C 30.085938 -32.515625 31.054688 -34.859375 31.609375 -37.578125 L 33.34375 -37.578125 C 33.195312 -35.460938 33.125 -33.097656 33.125 -30.484375 L 33.125 -26.859375 C 33.125 -24.296875 33.273438 -20.722656 33.578125 -16.140625 L 31.84375 -16.140625 C 30.78125 -22.785156 27.710938 -26.109375 22.640625 -26.109375 L 20.21875 -26.109375 L 20.21875 -7.09375 C 20.21875 -5.476562 20.34375 -4.304688 20.59375 -3.578125 C 20.84375 -2.847656 21.320312 -2.359375 22.03125 -2.109375 C 22.738281 -1.859375 23.867188 -1.734375 25.421875 -1.734375 L 29.125 -1.734375 C 32.695312 -1.734375 35.578125 -2.953125 37.765625 -5.390625 C 39.953125 -7.828125 41.5 -11.96875 42.40625 -17.8125 L 44.140625 -17.8125 C 43.984375 -16.144531 43.90625 -14.03125 43.90625 -11.46875 Z M 43.90625 -11.46875 "/></g></g></g><g fill="#2d621e" fill-opacity="1"><g transform="translate(109.050409, 81.649603)"><g><path d="M 25.875 -53.421875 C 35.6875 -53.421875 43.03125 -51.191406 47.90625 -46.734375 C 52.789062 -42.285156 55.234375 -35.8125 55.234375 -27.3125 C 55.234375 -21.832031 54.035156 -17.039062 51.640625 -12.9375 C 49.253906 -8.84375 45.8125 -5.660156 41.3125 -3.390625 C 36.8125 -1.128906 31.441406 0 25.203125 0 L 20.515625 -0.078125 C 17.597656 -0.171875 15.488281 -0.21875 14.1875 -0.21875 C 9 -0.21875 5.125 -0.144531 2.5625 0 L 2.5625 -1.515625 C 4.226562 -1.609375 5.445312 -1.804688 6.21875 -2.109375 C 7 -2.410156 7.523438 -2.988281 7.796875 -3.84375 C 8.078125 -4.695312 8.21875 -6.082031 8.21875 -8 L 8.21875 -45.421875 C 8.21875 -47.335938 8.078125 -48.722656 7.796875 -49.578125 C 7.523438 -50.429688 7 -51.007812 6.21875 -51.3125 C 5.445312 -51.613281 4.226562 -51.8125 2.5625 -51.90625 L 2.5625 -53.421875 C 4.675781 -53.265625 7.71875 -53.1875 11.6875 -53.1875 L 14.03125 -53.1875 L 17.046875 -53.265625 C 21.171875 -53.367188 24.113281 -53.421875 25.875 -53.421875 Z M 25.8125 -52.0625 C 24.25 -52.0625 23.078125 -51.882812 22.296875 -51.53125 C 21.515625 -51.175781 20.972656 -50.546875 20.671875 -49.640625 C 20.367188 -48.742188 20.21875 -47.390625 20.21875 -45.578125 L 20.21875 -7.84375 C 20.21875 -6.03125 20.367188 -4.671875 20.671875 -3.765625 C 20.972656 -2.867188 21.515625 -2.242188 22.296875 -1.890625 C 23.078125 -1.535156 24.269531 -1.359375 25.875 -1.359375 C 31.96875 -1.359375 36.296875 -3.484375 38.859375 -7.734375 C 41.421875 -11.984375 42.703125 -18.410156 42.703125 -27.015625 C 42.703125 -35.617188 41.378906 -41.941406 38.734375 -45.984375 C 36.097656 -50.035156 31.789062 -52.0625 25.8125 -52.0625 Z M 25.8125 -52.0625 "/></g></g></g><g fill="#2d621e" fill-opacity="1"><g transform="translate(167.597119, 81.649603)"><g><path d="M 53.71875 -3.3125 C 52.363281 -1.757812 50.90625 -0.644531 49.34375 0.03125 C 47.78125 0.71875 45.894531 1.0625 43.6875 1.0625 C 40.769531 1.0625 38.46875 0.445312 36.78125 -0.78125 C 35.09375 -2.019531 34 -4.125 33.5 -7.09375 L 32.140625 -14.640625 C 31.484375 -18.304688 30.691406 -21.007812 29.765625 -22.75 C 28.835938 -24.488281 27.289062 -25.359375 25.125 -25.359375 L 20.21875 -25.359375 L 20.21875 -8 C 20.21875 -6.082031 20.351562 -4.695312 20.625 -3.84375 C 20.90625 -2.988281 21.421875 -2.410156 22.171875 -2.109375 C 22.929688 -1.804688 24.164062 -1.609375 25.875 -1.515625 L 25.875 0 C 23.164062 -0.144531 19.367188 -0.21875 14.484375 -0.21875 C 9.097656 -0.21875 5.125 -0.144531 2.5625 0 L 2.5625 -1.515625 C 4.226562 -1.609375 5.445312 -1.804688 6.21875 -2.109375 C 7 -2.410156 7.523438 -2.988281 7.796875 -3.84375 C 8.078125 -4.695312 8.21875 -6.082031 8.21875 -8 L 8.21875 -45.421875 C 8.21875 -47.335938 8.078125 -48.722656 7.796875 -49.578125 C 7.523438 -50.429688 7 -51.007812 6.21875 -51.3125 C 5.445312 -51.613281 4.226562 -51.8125 2.5625 -51.90625 L 2.5625 -53.421875 C 5.125 -53.265625 8.945312 -53.1875 14.03125 -53.1875 L 22.40625 -53.265625 C 23.414062 -53.316406 24.570312 -53.34375 25.875 -53.34375 C 32.820312 -53.34375 38.039062 -52.207031 41.53125 -49.9375 C 45.03125 -47.675781 46.78125 -44.4375 46.78125 -40.21875 C 46.78125 -36.644531 45.472656 -33.5 42.859375 -30.78125 C 40.242188 -28.0625 35.914062 -26.351562 29.875 -25.65625 C 34.40625 -25.25 37.773438 -24.265625 39.984375 -22.703125 C 42.203125 -21.148438 43.640625 -18.8125 44.296875 -15.6875 L 46.03125 -7.921875 C 46.425781 -5.910156 46.890625 -4.5 47.421875 -3.6875 C 47.953125 -2.882812 48.691406 -2.484375 49.640625 -2.484375 C 50.242188 -2.535156 50.757812 -2.6875 51.1875 -2.9375 C 51.625 -3.1875 52.117188 -3.613281 52.671875 -4.21875 Z M 24.90625 -51.90625 C 23.539062 -51.90625 22.539062 -51.726562 21.90625 -51.375 C 21.28125 -51.03125 20.84375 -50.40625 20.59375 -49.5 C 20.34375 -48.59375 20.21875 -47.234375 20.21875 -45.421875 L 20.21875 -26.859375 L 23.46875 -26.859375 C 27.59375 -26.859375 30.421875 -27.953125 31.953125 -30.140625 C 33.484375 -32.328125 34.25 -35.410156 34.25 -39.390625 C 34.25 -43.515625 33.519531 -46.628906 32.0625 -48.734375 C 30.601562 -50.847656 28.21875 -51.90625 24.90625 -51.90625 Z M 24.90625 -51.90625 "/></g></g></g><g fill="#2d621e" fill-opacity="1"><g transform="translate(219.806306, 81.649603)"><g><path d="M 46.109375 -6.34375 C 46.753906 -4.675781 47.503906 -3.460938 48.359375 -2.703125 C 49.210938 -1.953125 50.046875 -1.554688 50.859375 -1.515625 L 50.859375 0 C 47.835938 -0.144531 44.015625 -0.21875 39.390625 -0.21875 C 34.253906 -0.21875 30.429688 -0.144531 27.921875 0 L 27.921875 -1.515625 C 29.828125 -1.609375 31.179688 -1.84375 31.984375 -2.21875 C 32.796875 -2.601562 33.203125 -3.269531 33.203125 -4.21875 C 33.203125 -5.125 32.898438 -6.332031 32.296875 -7.84375 L 27.765625 -20.21875 L 11.3125 -20.21875 L 9.359375 -15.015625 C 7.953125 -11.390625 7.25 -8.597656 7.25 -6.640625 C 7.25 -4.773438 7.8125 -3.476562 8.9375 -2.75 C 10.070312 -2.019531 11.742188 -1.609375 13.953125 -1.515625 L 13.953125 0 C 10.535156 -0.144531 7.421875 -0.21875 4.609375 -0.21875 C 2.285156 -0.21875 0.375 -0.144531 -1.125 0 L -1.125 -1.515625 C 1.332031 -1.960938 3.492188 -4.601562 5.359375 -9.4375 L 22.5625 -53.578125 C 23.113281 -53.523438 23.992188 -53.5 25.203125 -53.5 C 26.410156 -53.5 27.265625 -53.523438 27.765625 -53.578125 Z M 27.234375 -21.734375 L 19.765625 -42.109375 L 11.921875 -21.734375 Z M 27.234375 -21.734375 "/></g></g></g></g></g><g transform="matrix(1, 0, 0, 1, 104, 225)"><g clip-path="url(#9c47fc1003)"><g clip-path="url(#aec586eab8)"><g fill="#000000" fill-opacity="1"><g transform="translate(0.738441, 10.428006)"><g><path d="M 2.65625 -6.765625 L 0.046875 -6.765625 L 0.046875 -7.453125 L 6.0625 -7.453125 L 6.0625 -6.765625 L 3.453125 -6.765625 L 3.453125 0 L 2.65625 0 Z M 2.65625 -6.765625 "/></g></g></g></g><g fill="#000000" fill-opacity="1"><g transform="translate(9.54807, 10.428006)"><g><path d="M 7.4375 -7.453125 L 7.4375 0 L 6.65625 0 L 6.65625 -3.4375 L 2 -3.4375 L 2 0 L 1.21875 0 L 1.21875 -7.453125 L 2 -7.453125 L 2 -4.125 L 6.65625 -4.125 L 6.65625 -7.453125 Z M 7.4375 -7.453125 "/></g></g></g><g fill="#000000" fill-opacity="1"><g transform="translate(20.90059, 10.428006)"><g><path d="M 6.484375 -0.6875 L 6.484375 0 L 1.21875 0 L 1.21875 -7.453125 L 6.328125 -7.453125 L 6.328125 -6.765625 L 2 -6.765625 L 2 -4.125 L 5.859375 -4.125 L 5.859375 -3.453125 L 2 -3.453125 L 2 -0.6875 Z M 6.484375 -0.6875 "/></g></g></g><g fill="#000000" fill-opacity="1"><g transform="translate(30.720996, 10.428006)"><g/></g></g><g fill="#000000" fill-opacity="1"><g transform="translate(36.21105, 10.428006)"><g><path d="M 3.265625 0.0625 C 2.710938 0.0625 2.179688 -0.0234375 1.671875 -0.203125 C 1.171875 -0.378906 0.78125 -0.613281 0.5 -0.90625 L 0.8125 -1.515625 C 1.082031 -1.242188 1.4375 -1.023438 1.875 -0.859375 C 2.320312 -0.691406 2.785156 -0.609375 3.265625 -0.609375 C 3.929688 -0.609375 4.429688 -0.726562 4.765625 -0.96875 C 5.097656 -1.21875 5.265625 -1.535156 5.265625 -1.921875 C 5.265625 -2.222656 5.171875 -2.460938 4.984375 -2.640625 C 4.804688 -2.816406 4.585938 -2.953125 4.328125 -3.046875 C 4.066406 -3.140625 3.703125 -3.242188 3.234375 -3.359375 C 2.671875 -3.503906 2.222656 -3.640625 1.890625 -3.765625 C 1.554688 -3.898438 1.269531 -4.101562 1.03125 -4.375 C 0.800781 -4.644531 0.6875 -5.007812 0.6875 -5.46875 C 0.6875 -5.84375 0.785156 -6.179688 0.984375 -6.484375 C 1.179688 -6.796875 1.484375 -7.046875 1.890625 -7.234375 C 2.304688 -7.421875 2.816406 -7.515625 3.421875 -7.515625 C 3.847656 -7.515625 4.265625 -7.453125 4.671875 -7.328125 C 5.078125 -7.210938 5.429688 -7.054688 5.734375 -6.859375 L 5.46875 -6.21875 C 5.15625 -6.425781 4.820312 -6.582031 4.46875 -6.6875 C 4.113281 -6.789062 3.765625 -6.84375 3.421875 -6.84375 C 2.773438 -6.84375 2.285156 -6.71875 1.953125 -6.46875 C 1.617188 -6.21875 1.453125 -5.890625 1.453125 -5.484375 C 1.453125 -5.191406 1.539062 -4.953125 1.71875 -4.765625 C 1.90625 -4.585938 2.132812 -4.453125 2.40625 -4.359375 C 2.675781 -4.265625 3.046875 -4.160156 3.515625 -4.046875 C 4.054688 -3.910156 4.492188 -3.773438 4.828125 -3.640625 C 5.171875 -3.515625 5.457031 -3.316406 5.6875 -3.046875 C 5.925781 -2.785156 6.046875 -2.425781 6.046875 -1.96875 C 6.046875 -1.59375 5.941406 -1.25 5.734375 -0.9375 C 5.535156 -0.632812 5.226562 -0.390625 4.8125 -0.203125 C 4.394531 -0.0234375 3.878906 0.0625 3.265625 0.0625 Z M 3.265625 0.0625 "/></g></g></g><g fill="#000000" fill-opacity="1"><g transform="translate(45.456907, 10.428006)"><g><path d="M 4 -7.453125 C 4.945312 -7.453125 5.691406 -7.222656 6.234375 -6.765625 C 6.773438 -6.316406 7.046875 -5.691406 7.046875 -4.890625 C 7.046875 -4.097656 6.773438 -3.476562 6.234375 -3.03125 C 5.691406 -2.582031 4.945312 -2.359375 4 -2.359375 L 2 -2.359375 L 2 0 L 1.21875 0 L 1.21875 -7.453125 Z M 3.984375 -3.046875 C 4.722656 -3.046875 5.285156 -3.207031 5.671875 -3.53125 C 6.054688 -3.851562 6.25 -4.304688 6.25 -4.890625 C 6.25 -5.492188 6.054688 -5.957031 5.671875 -6.28125 C 5.285156 -6.601562 4.722656 -6.765625 3.984375 -6.765625 L 2 -6.765625 L 2 -3.046875 Z M 3.984375 -3.046875 "/></g></g></g><g fill="#000000" fill-opacity="1"><g transform="translate(55.798651, 10.428006)"><g><path d="M 5.890625 -1.984375 L 1.734375 -1.984375 L 0.84375 0 L 0.015625 0 L 3.421875 -7.453125 L 4.203125 -7.453125 L 7.609375 0 L 6.78125 0 Z M 5.59375 -2.625 L 3.8125 -6.625 L 2.015625 -2.625 Z M 5.59375 -2.625 "/></g></g></g><g fill="#000000" fill-opacity="1"><g transform="translate(66.129761, 10.428006)"><g/></g></g><g fill="#000000" fill-opacity="1"><g transform="translate(71.619816, 10.428006)"><g><path d="M 6.484375 -0.6875 L 6.484375 0 L 1.21875 0 L 1.21875 -7.453125 L 6.328125 -7.453125 L 6.328125 -6.765625 L 2 -6.765625 L 2 -4.125 L 5.859375 -4.125 L 5.859375 -3.453125 L 2 -3.453125 L 2 -0.6875 Z M 6.484375 -0.6875 "/></g></g></g><g fill="#000000" fill-opacity="1"><g transform="translate(81.440221, 10.428006)"><g><path d="M 5.890625 0 L 3.484375 -3.28125 L 1.078125 0 L 0.1875 0 L 3.015625 -3.828125 L 0.359375 -7.453125 L 1.265625 -7.453125 L 3.515625 -4.40625 L 5.75 -7.453125 L 6.59375 -7.453125 L 3.953125 -3.859375 L 6.796875 0 Z M 5.890625 0 "/></g></g></g><g fill="#000000" fill-opacity="1"><g transform="translate(91.122306, 10.428006)"><g><path d="M 4 -7.453125 C 4.945312 -7.453125 5.691406 -7.222656 6.234375 -6.765625 C 6.773438 -6.316406 7.046875 -5.691406 7.046875 -4.890625 C 7.046875 -4.097656 6.773438 -3.476562 6.234375 -3.03125 C 5.691406 -2.582031 4.945312 -2.359375 4 -2.359375 L 2 -2.359375 L 2 0 L 1.21875 0 L 1.21875 -7.453125 Z M 3.984375 -3.046875 C 4.722656 -3.046875 5.285156 -3.207031 5.671875 -3.53125 C 6.054688 -3.851562 6.25 -4.304688 6.25 -4.890625 C 6.25 -5.492188 6.054688 -5.957031 5.671875 -6.28125 C 5.285156 -6.601562 4.722656 -6.765625 3.984375 -6.765625 L 2 -6.765625 L 2 -3.046875 Z M 3.984375 -3.046875 "/></g></g></g><g fill="#000000" fill-opacity="1"><g transform="translate(101.46405, 10.428006)"><g><path d="M 6.484375 -0.6875 L 6.484375 0 L 1.21875 0 L 1.21875 -7.453125 L 6.328125 -7.453125 L 6.328125 -6.765625 L 2 -6.765625 L 2 -4.125 L 5.859375 -4.125 L 5.859375 -3.453125 L 2 -3.453125 L 2 -0.6875 Z M 6.484375 -0.6875 "/></g></g></g><g fill="#000000" fill-opacity="1"><g transform="translate(111.284455, 10.428006)"><g><path d="M 6.296875 0 L 4.59375 -2.390625 C 4.40625 -2.367188 4.207031 -2.359375 4 -2.359375 L 2 -2.359375 L 2 0 L 1.21875 0 L 1.21875 -7.453125 L 4 -7.453125 C 4.945312 -7.453125 5.691406 -7.222656 6.234375 -6.765625 C 6.773438 -6.316406 7.046875 -5.691406 7.046875 -4.890625 C 7.046875 -4.304688 6.894531 -3.8125 6.59375 -3.40625 C 6.300781 -3.007812 5.882812 -2.722656 5.34375 -2.546875 L 7.15625 0 Z M 3.984375 -3.03125 C 4.722656 -3.03125 5.285156 -3.191406 5.671875 -3.515625 C 6.054688 -3.847656 6.25 -4.304688 6.25 -4.890625 C 6.25 -5.492188 6.054688 -5.957031 5.671875 -6.28125 C 5.285156 -6.601562 4.722656 -6.765625 3.984375 -6.765625 L 2 -6.765625 L 2 -3.03125 Z M 3.984375 -3.03125 "/></g></g></g><g fill="#000000" fill-opacity="1"><g transform="translate(121.679395, 10.428006)"><g><path d="M 1.21875 -7.453125 L 2 -7.453125 L 2 0 L 1.21875 0 Z M 1.21875 -7.453125 "/></g></g></g><g fill="#000000" fill-opacity="1"><g transform="translate(127.59503, 10.428006)"><g><path d="M 6.484375 -0.6875 L 6.484375 0 L 1.21875 0 L 1.21875 -7.453125 L 6.328125 -7.453125 L 6.328125 -6.765625 L 2 -6.765625 L 2 -4.125 L 5.859375 -4.125 L 5.859375 -3.453125 L 2 -3.453125 L 2 -0.6875 Z M 6.484375 -0.6875 "/></g></g></g><g fill="#000000" fill-opacity="1"><g transform="translate(137.415435, 10.428006)"><g><path d="M 7.4375 -7.453125 L 7.4375 0 L 6.78125 0 L 2 -6.046875 L 2 0 L 1.21875 0 L 1.21875 -7.453125 L 1.859375 -7.453125 L 6.65625 -1.40625 L 6.65625 -7.453125 Z M 7.4375 -7.453125 "/></g></g></g><g fill="#000000" fill-opacity="1"><g transform="translate(148.767955, 10.428006)"><g><path d="M 4.453125 0.0625 C 3.710938 0.0625 3.046875 -0.0976562 2.453125 -0.421875 C 1.859375 -0.753906 1.390625 -1.207031 1.046875 -1.78125 C 0.710938 -2.363281 0.546875 -3.007812 0.546875 -3.71875 C 0.546875 -4.4375 0.710938 -5.082031 1.046875 -5.65625 C 1.390625 -6.238281 1.859375 -6.691406 2.453125 -7.015625 C 3.054688 -7.347656 3.722656 -7.515625 4.453125 -7.515625 C 5.003906 -7.515625 5.515625 -7.421875 5.984375 -7.234375 C 6.453125 -7.046875 6.851562 -6.773438 7.1875 -6.421875 L 6.6875 -5.921875 C 6.101562 -6.515625 5.367188 -6.8125 4.484375 -6.8125 C 3.890625 -6.8125 3.351562 -6.675781 2.875 -6.40625 C 2.394531 -6.132812 2.015625 -5.765625 1.734375 -5.296875 C 1.460938 -4.828125 1.328125 -4.300781 1.328125 -3.71875 C 1.328125 -3.144531 1.460938 -2.625 1.734375 -2.15625 C 2.015625 -1.6875 2.394531 -1.316406 2.875 -1.046875 C 3.351562 -0.773438 3.890625 -0.640625 4.484375 -0.640625 C 5.378906 -0.640625 6.113281 -0.9375 6.6875 -1.53125 L 7.1875 -1.03125 C 6.851562 -0.675781 6.453125 -0.40625 5.984375 -0.21875 C 5.515625 -0.03125 5.003906 0.0625 4.453125 0.0625 Z M 4.453125 0.0625 "/></g></g></g><g fill="#000000" fill-opacity="1"><g transform="translate(159.120347, 10.428006)"><g><path d="M 6.484375 -0.6875 L 6.484375 0 L 1.21875 0 L 1.21875 -7.453125 L 6.328125 -7.453125 L 6.328125 -6.765625 L 2 -6.765625 L 2 -4.125 L 5.859375 -4.125 L 5.859375 -3.453125 L 2 -3.453125 L 2 -0.6875 Z M 6.484375 -0.6875 "/></g></g></g></g></g></svg>