<svg xmlns="http://www.w3.org/2000/svg" xmlns:xlink="http://www.w3.org/1999/xlink" width="500" zoomAndPan="magnify" viewBox="0 0 375 374.999991" height="500" preserveAspectRatio="xMidYMid meet" version="1.0"><defs><g/><clipPath id="4d59d74052"><path d="M 0.238281 0.0390625 L 317.039062 0.0390625 L 317.039062 77 L 0.238281 77 Z M 0.238281 0.0390625 " clip-rule="nonzero"/></clipPath><clipPath id="ed49a3edda"><rect x="0" width="318" y="0" height="77"/></clipPath><clipPath id="538469b19e"><path d="M 73 78 L 228 78 L 228 104.441406 L 73 104.441406 Z M 73 78 " clip-rule="nonzero"/></clipPath><clipPath id="b8cd34aeff"><path d="M 0.199219 4 L 13 4 L 13 22 L 0.199219 22 Z M 0.199219 4 " clip-rule="nonzero"/></clipPath><clipPath id="aeaa5c1b91"><rect x="0" width="155" y="0" height="27"/></clipPath><clipPath id="7d1ed6d17b"><rect x="0" width="318" y="0" height="105"/></clipPath></defs><g transform="matrix(1, 0, 0, 1, 42, 131)"><g clip-path="url(#7d1ed6d17b)"><g clip-path="url(#4d59d74052)"><g><g clip-path="url(#ed49a3edda)"><g fill="#ffffff" fill-opacity="1"><g transform="translate(2.532898, 60.169619)"><g><path d="M 0.40625 0.203125 C 0 0.203125 -0.300781 0.0546875 -0.5 -0.234375 C -0.695312 -0.523438 -0.796875 -0.867188 -0.796875 -1.265625 C -0.753906 -1.929688 -0.617188 -2.332031 -0.390625 -2.46875 C -0.171875 -2.601562 0.0859375 -2.671875 0.390625 -2.671875 C 0.703125 -2.671875 0.90625 -2.671875 1 -2.671875 C 2.332031 -2.671875 3.3125 -3.015625 3.9375 -3.703125 C 4.5625 -4.390625 5.0625 -5.164062 5.4375 -6.03125 C 5.8125 -6.90625 6.066406 -7.492188 6.203125 -7.796875 L 17.875 -35.421875 C 18.144531 -36.085938 18.28125 -36.617188 18.28125 -37.015625 C 18.28125 -37.816406 17.96875 -38.394531 17.34375 -38.75 C 16.71875 -39.101562 15.847656 -39.394531 14.734375 -39.625 C 13.984375 -39.757812 13.519531 -39.890625 13.34375 -40.015625 C 13.164062 -40.148438 13.078125 -40.53125 13.078125 -41.15625 C 13.078125 -41.6875 13.21875 -42.039062 13.5 -42.21875 C 13.789062 -42.394531 14.25 -42.484375 14.875 -42.484375 C 17.09375 -42.484375 18.859375 -42.316406 20.171875 -41.984375 C 21.484375 -41.648438 22.628906 -40.984375 23.609375 -39.984375 C 24.585938 -38.984375 25.5 -37.460938 26.34375 -35.421875 L 37.546875 -7.796875 C 38.210938 -6.109375 38.859375 -4.84375 39.484375 -4 C 40.109375 -3.15625 41.046875 -2.710938 42.296875 -2.671875 L 42.6875 -2.671875 C 43.132812 -2.671875 43.445312 -2.59375 43.625 -2.4375 C 43.800781 -2.28125 43.910156 -1.890625 43.953125 -1.265625 C 43.953125 -0.867188 43.851562 -0.523438 43.65625 -0.234375 C 43.457031 0.0546875 43.15625 0.203125 42.75 0.203125 C 39.90625 0.0664062 37.460938 0 35.421875 0 C 32.753906 0 29.992188 0.0664062 27.140625 0.203125 C 26.742188 0.203125 26.445312 0.0546875 26.25 -0.234375 C 26.050781 -0.523438 25.953125 -0.867188 25.953125 -1.265625 C 25.992188 -1.890625 26.101562 -2.28125 26.28125 -2.4375 C 26.457031 -2.59375 26.769531 -2.671875 27.21875 -2.671875 C 28.726562 -2.671875 29.789062 -2.8125 30.40625 -3.09375 C 31.03125 -3.382812 31.34375 -3.910156 31.34375 -4.671875 C 31.34375 -5.242188 31.078125 -6.285156 30.546875 -7.796875 L 28.28125 -13.34375 L 11.8125 -13.34375 C 10.695312 -10.582031 10.0625 -8.976562 9.90625 -8.53125 C 9.75 -8.09375 9.671875 -7.847656 9.671875 -7.796875 C 9.140625 -6.109375 8.875 -5.019531 8.875 -4.53125 C 8.875 -3.78125 9.207031 -3.28125 9.875 -3.03125 C 10.539062 -2.789062 11.804688 -2.671875 13.671875 -2.671875 L 14.078125 -2.671875 C 14.515625 -2.671875 14.820312 -2.59375 15 -2.4375 C 15.1875 -2.28125 15.300781 -1.890625 15.34375 -1.265625 C 15.34375 -0.867188 15.238281 -0.523438 15.03125 -0.234375 C 14.832031 0.0546875 14.535156 0.203125 14.140625 0.203125 C 11.296875 0.0664062 8.875 0 6.875 0 C 5.445312 0 3.289062 0.0664062 0.40625 0.203125 Z M 13.078125 -16.203125 L 27.078125 -16.203125 L 20.34375 -33.34375 L 20.140625 -33.34375 Z M 13.078125 -16.203125 "/></g></g></g><g fill="#ffffff" fill-opacity="1"><g transform="translate(62.233802, 60.169619)"><g><path d="M 23.953125 1.328125 C 20.523438 1.328125 17.597656 0.726562 15.171875 -0.46875 C 12.753906 -1.664062 10.921875 -3.242188 9.671875 -5.203125 C 8.421875 -7.160156 7.796875 -9.273438 7.796875 -11.546875 L 7.796875 -34.28125 C 7.753906 -35.394531 7.65625 -36.296875 7.5 -36.984375 C 7.34375 -37.671875 6.953125 -38.25 6.328125 -38.71875 C 5.710938 -39.1875 4.757812 -39.421875 3.46875 -39.421875 L 3.0625 -39.421875 C 2.625 -39.421875 2.316406 -39.5 2.140625 -39.65625 C 1.960938 -39.8125 1.847656 -40.203125 1.796875 -40.828125 C 1.796875 -41.222656 1.894531 -41.566406 2.09375 -41.859375 C 2.300781 -42.148438 2.601562 -42.296875 3 -42.296875 C 5.84375 -42.160156 8.46875 -42.09375 10.875 -42.09375 C 13.582031 -42.09375 16.359375 -42.160156 19.203125 -42.296875 C 19.609375 -42.296875 19.910156 -42.148438 20.109375 -41.859375 C 20.304688 -41.566406 20.40625 -41.222656 20.40625 -40.828125 C 20.363281 -40.203125 20.242188 -39.8125 20.046875 -39.65625 C 19.847656 -39.5 19.523438 -39.421875 19.078125 -39.421875 C 17.648438 -39.421875 16.601562 -39.195312 15.9375 -38.75 C 15.269531 -38.3125 14.859375 -37.757812 14.703125 -37.09375 C 14.546875 -36.425781 14.445312 -35.488281 14.40625 -34.28125 L 14.40625 -13.46875 C 14.40625 -10.40625 15.128906 -7.828125 16.578125 -5.734375 C 18.023438 -3.640625 20.835938 -2.59375 25.015625 -2.59375 C 29.109375 -2.59375 32.007812 -3.535156 33.71875 -5.421875 C 35.425781 -7.316406 36.28125 -9.691406 36.28125 -12.546875 L 36.28125 -30.078125 C 36.28125 -33.109375 36.171875 -35.242188 35.953125 -36.484375 C 35.734375 -37.734375 35.289062 -38.535156 34.625 -38.890625 C 33.957031 -39.242188 32.800781 -39.421875 31.15625 -39.421875 L 30.75 -39.421875 C 30.351562 -39.421875 30.050781 -39.5 29.84375 -39.65625 C 29.644531 -39.8125 29.523438 -40.203125 29.484375 -40.828125 C 29.484375 -41.222656 29.582031 -41.566406 29.78125 -41.859375 C 29.976562 -42.148438 30.28125 -42.296875 30.6875 -42.296875 C 33.570312 -42.160156 36.0625 -42.09375 38.15625 -42.09375 C 40.289062 -42.09375 42.78125 -42.160156 45.625 -42.296875 C 46.019531 -42.296875 46.316406 -42.148438 46.515625 -41.859375 C 46.722656 -41.566406 46.828125 -41.222656 46.828125 -40.828125 C 46.785156 -40.203125 46.660156 -39.8125 46.453125 -39.65625 C 46.253906 -39.5 45.929688 -39.421875 45.484375 -39.421875 C 43.710938 -39.421875 42.476562 -39.265625 41.78125 -38.953125 C 41.09375 -38.640625 40.625 -37.894531 40.375 -36.71875 C 40.132812 -35.539062 40.015625 -33.460938 40.015625 -30.484375 L 40.015625 -11.875 C 40.015625 -8.894531 39.191406 -6.414062 37.546875 -4.4375 C 35.898438 -2.457031 33.84375 -1 31.375 -0.0625 C 28.914062 0.863281 26.441406 1.328125 23.953125 1.328125 Z M 23.953125 1.328125 "/></g></g></g><g fill="#ffffff" fill-opacity="1"><g transform="translate(127.337662, 60.169619)"><g><path d="M 4.0625 0.203125 C 3.664062 0.203125 3.367188 0.0546875 3.171875 -0.234375 C 2.972656 -0.523438 2.875 -0.867188 2.875 -1.265625 C 2.914062 -1.929688 3.046875 -2.332031 3.265625 -2.46875 C 3.492188 -2.601562 3.914062 -2.671875 4.53125 -2.671875 C 5.820312 -2.671875 6.78125 -2.898438 7.40625 -3.359375 C 8.03125 -3.828125 8.421875 -4.40625 8.578125 -5.09375 C 8.734375 -5.789062 8.832031 -6.691406 8.875 -7.796875 L 8.875 -34.21875 C 8.832031 -35.375 8.734375 -36.285156 8.578125 -36.953125 C 8.421875 -37.617188 8.03125 -38.195312 7.40625 -38.6875 C 6.78125 -39.175781 5.820312 -39.421875 4.53125 -39.421875 L 4.140625 -39.421875 C 3.691406 -39.421875 3.378906 -39.5 3.203125 -39.65625 C 3.023438 -39.8125 2.914062 -40.203125 2.875 -40.828125 C 2.875 -41.222656 2.972656 -41.566406 3.171875 -41.859375 C 3.367188 -42.148438 3.664062 -42.296875 4.0625 -42.296875 C 6.957031 -42.160156 9.601562 -42.09375 12 -42.09375 L 23.484375 -42.09375 C 26.898438 -42.039062 29.753906 -41.492188 32.046875 -40.453125 C 34.335938 -39.410156 36.015625 -38.078125 37.078125 -36.453125 C 38.148438 -34.828125 38.6875 -33.082031 38.6875 -31.21875 C 38.6875 -28.769531 37.71875 -26.519531 35.78125 -24.46875 C 33.851562 -22.425781 31.21875 -20.960938 27.875 -20.078125 L 29.015625 -18.28125 C 30.878906 -15.25 32.566406 -12.65625 34.078125 -10.5 C 35.597656 -8.34375 37.242188 -6.332031 39.015625 -4.46875 C 40.265625 -3.445312 41.601562 -2.847656 43.03125 -2.671875 C 43.113281 -2.671875 43.3125 -2.65625 43.625 -2.625 C 43.9375 -2.601562 44.191406 -2.484375 44.390625 -2.265625 C 44.585938 -2.046875 44.6875 -1.710938 44.6875 -1.265625 C 44.6875 -0.867188 44.585938 -0.523438 44.390625 -0.234375 C 44.191406 0.0546875 43.890625 0.203125 43.484375 0.203125 L 41.75 0.140625 C 39.800781 0.046875 38.378906 0 37.484375 0 C 35.703125 -0.351562 34.175781 -0.984375 32.90625 -1.890625 C 31.644531 -2.804688 30.394531 -4.109375 29.15625 -5.796875 C 27.863281 -7.492188 26.0625 -10.253906 23.75 -14.078125 L 22.546875 -16.015625 C 21.878906 -17.035156 21.234375 -17.734375 20.609375 -18.109375 C 19.984375 -18.484375 18.914062 -18.671875 17.40625 -18.671875 L 15.46875 -18.671875 L 15.46875 -7.796875 C 15.519531 -6.691406 15.625 -5.789062 15.78125 -5.09375 C 15.9375 -4.40625 16.320312 -3.828125 16.9375 -3.359375 C 17.5625 -2.898438 18.519531 -2.671875 19.8125 -2.671875 L 20.21875 -2.671875 C 20.613281 -2.671875 20.910156 -2.59375 21.109375 -2.4375 C 21.304688 -2.28125 21.429688 -1.890625 21.484375 -1.265625 C 21.484375 -0.867188 21.378906 -0.523438 21.171875 -0.234375 C 20.972656 0.0546875 20.675781 0.203125 20.28125 0.203125 C 17.4375 0.0664062 14.65625 0 11.9375 0 C 9.582031 0 6.957031 0.0664062 4.0625 0.203125 Z M 21.34375 -21.28125 C 27.96875 -21.28125 31.28125 -24.390625 31.28125 -30.609375 C 31.28125 -33.148438 30.410156 -35.285156 28.671875 -37.015625 C 26.941406 -38.753906 24.097656 -39.625 20.140625 -39.625 C 18.847656 -39.625 17.867188 -39.46875 17.203125 -39.15625 C 16.535156 -38.84375 16.078125 -38.304688 15.828125 -37.546875 C 15.585938 -36.796875 15.46875 -35.640625 15.46875 -34.078125 L 15.46875 -21.28125 Z M 21.34375 -21.28125 "/></g></g></g><g fill="#ffffff" fill-opacity="1"><g transform="translate(190.573899, 60.169619)"><g><path d="M 4 0.203125 C 3.644531 0.203125 3.367188 0.0546875 3.171875 -0.234375 C 2.972656 -0.523438 2.875 -0.867188 2.875 -1.265625 C 2.914062 -1.929688 3.046875 -2.332031 3.265625 -2.46875 C 3.492188 -2.601562 3.914062 -2.671875 4.53125 -2.671875 C 5.820312 -2.671875 6.78125 -2.898438 7.40625 -3.359375 C 8.03125 -3.828125 8.421875 -4.40625 8.578125 -5.09375 C 8.734375 -5.789062 8.832031 -6.691406 8.875 -7.796875 L 8.875 -34.28125 C 8.832031 -35.394531 8.734375 -36.296875 8.578125 -36.984375 C 8.421875 -37.671875 8.03125 -38.25 7.40625 -38.71875 C 6.78125 -39.1875 5.820312 -39.421875 4.53125 -39.421875 L 4.140625 -39.421875 C 3.691406 -39.421875 3.378906 -39.5 3.203125 -39.65625 C 3.023438 -39.8125 2.914062 -40.203125 2.875 -40.828125 C 2.875 -41.222656 2.972656 -41.566406 3.171875 -41.859375 C 3.367188 -42.148438 3.644531 -42.296875 4 -42.296875 C 6.9375 -42.160156 9.582031 -42.09375 11.9375 -42.09375 L 32.890625 -42.09375 C 34.046875 -42.09375 34.625 -41.554688 34.625 -40.484375 L 34.8125 -31.15625 C 34.8125 -30.75 34.613281 -30.421875 34.21875 -30.171875 C 33.820312 -29.929688 33.421875 -29.8125 33.015625 -29.8125 C 32.484375 -29.8125 32.015625 -29.910156 31.609375 -30.109375 C 31.210938 -30.316406 30.992188 -30.617188 30.953125 -31.015625 C 30.597656 -33.191406 30.207031 -34.847656 29.78125 -35.984375 C 29.363281 -37.117188 28.742188 -37.960938 27.921875 -38.515625 C 27.097656 -39.078125 25.925781 -39.378906 24.40625 -39.421875 L 15.46875 -39.421875 L 15.46875 -22.484375 L 27.546875 -22.484375 C 27.859375 -22.429688 28.101562 -22.257812 28.28125 -21.96875 C 28.457031 -21.6875 28.546875 -21.34375 28.546875 -20.9375 C 28.546875 -20.582031 28.457031 -20.269531 28.28125 -20 C 28.101562 -19.738281 27.859375 -19.609375 27.546875 -19.609375 L 15.46875 -19.609375 L 15.46875 -7 C 15.5625 -6.070312 15.675781 -5.328125 15.8125 -4.765625 C 15.945312 -4.210938 16.347656 -3.710938 17.015625 -3.265625 C 17.679688 -2.816406 18.722656 -2.617188 20.140625 -2.671875 L 26.28125 -2.671875 C 27.832031 -2.710938 29.007812 -2.96875 29.8125 -3.4375 C 30.613281 -3.90625 31.25 -4.628906 31.71875 -5.609375 C 32.1875 -6.585938 32.753906 -8.1875 33.421875 -10.40625 C 33.734375 -11.207031 34.488281 -11.519531 35.6875 -11.34375 C 36.132812 -11.25 36.523438 -11.066406 36.859375 -10.796875 C 37.191406 -10.535156 37.332031 -10.207031 37.28125 -9.8125 L 35.953125 -1.40625 C 35.816406 -0.820312 35.613281 -0.441406 35.34375 -0.265625 C 35.082031 -0.0859375 34.640625 0 34.015625 0 L 12 0 C 9.601562 0 6.9375 0.0664062 4 0.203125 Z M 4 0.203125 "/></g></g></g><g fill="#ffffff" fill-opacity="1"><g transform="translate(248.674055, 60.169619)"><g><path d="M 4.140625 0.203125 C 3.734375 0.203125 3.429688 0.0546875 3.234375 -0.234375 C 3.035156 -0.523438 2.9375 -0.867188 2.9375 -1.265625 C 2.976562 -1.929688 3.109375 -2.332031 3.328125 -2.46875 C 3.554688 -2.601562 3.984375 -2.671875 4.609375 -2.671875 C 5.890625 -2.671875 6.832031 -2.898438 7.4375 -3.359375 C 8.039062 -3.828125 8.40625 -4.382812 8.53125 -5.03125 C 8.664062 -5.675781 8.757812 -6.597656 8.8125 -7.796875 L 8.9375 -34.28125 C 8.9375 -35.613281 8.789062 -36.625 8.5 -37.3125 C 8.21875 -38.007812 7.765625 -38.507812 7.140625 -38.8125 C 6.515625 -39.125 5.625 -39.394531 4.46875 -39.625 C 3.707031 -39.757812 3.238281 -39.890625 3.0625 -40.015625 C 2.882812 -40.148438 2.796875 -40.53125 2.796875 -41.15625 C 2.796875 -41.6875 2.941406 -42.039062 3.234375 -42.21875 C 3.523438 -42.394531 3.984375 -42.484375 4.609375 -42.484375 C 7.359375 -42.484375 9.535156 -42.296875 11.140625 -41.921875 C 12.742188 -41.546875 14.15625 -40.867188 15.375 -39.890625 C 16.59375 -38.910156 17.9375 -37.421875 19.40625 -35.421875 L 37.6875 -11.40625 L 37.890625 -11.40625 L 37.75 -34.28125 C 37.707031 -35.488281 37.617188 -36.410156 37.484375 -37.046875 C 37.347656 -37.691406 36.976562 -38.25 36.375 -38.71875 C 35.78125 -39.1875 34.835938 -39.421875 33.546875 -39.421875 L 33.15625 -39.421875 C 32.707031 -39.421875 32.382812 -39.5 32.1875 -39.65625 C 31.988281 -39.8125 31.863281 -40.203125 31.8125 -40.828125 C 31.8125 -41.222656 31.921875 -41.566406 32.140625 -41.859375 C 32.367188 -42.148438 32.660156 -42.296875 33.015625 -42.296875 C 35.859375 -42.160156 37.992188 -42.09375 39.421875 -42.09375 C 40.265625 -42.09375 41.890625 -42.132812 44.296875 -42.21875 L 45.6875 -42.296875 C 46.09375 -42.296875 46.394531 -42.148438 46.59375 -41.859375 C 46.789062 -41.566406 46.890625 -41.222656 46.890625 -40.828125 C 46.847656 -40.160156 46.710938 -39.757812 46.484375 -39.625 C 46.265625 -39.488281 45.84375 -39.421875 45.21875 -39.421875 C 43.9375 -39.421875 42.992188 -39.1875 42.390625 -38.71875 C 41.785156 -38.25 41.414062 -37.691406 41.28125 -37.046875 C 41.15625 -36.410156 41.066406 -35.488281 41.015625 -34.28125 L 40.890625 -0.671875 C 40.847656 -0.0859375 40.289062 0.203125 39.21875 0.203125 C 38.375 0.203125 37.726562 -0.0859375 37.28125 -0.671875 L 12.140625 -34.28125 L 11.9375 -34.28125 L 12.078125 -7.796875 C 12.117188 -6.597656 12.207031 -5.675781 12.34375 -5.03125 C 12.476562 -4.382812 12.84375 -3.828125 13.4375 -3.359375 C 14.039062 -2.898438 14.988281 -2.671875 16.28125 -2.671875 L 16.671875 -2.671875 C 17.117188 -2.671875 17.441406 -2.59375 17.640625 -2.4375 C 17.835938 -2.28125 17.960938 -1.890625 18.015625 -1.265625 C 18.015625 -0.867188 17.910156 -0.523438 17.703125 -0.234375 C 17.503906 0.0546875 17.207031 0.203125 16.8125 0.203125 C 13.96875 0.0664062 11.8125 0 10.34375 0 C 9.445312 0 7.890625 0.046875 5.671875 0.140625 Z M 4.140625 0.203125 "/></g></g></g></g></g></g><g clip-path="url(#538469b19e)"><g transform="matrix(1, 0, 0, 1, 73, 78)"><g clip-path="url(#aeaa5c1b91)"><g clip-path="url(#b8cd34aeff)"><g fill="#ffffff" fill-opacity="1"><g transform="translate(0.669089, 20.927018)"><g><path d="M 2.21875 0.328125 C 2.082031 0.328125 1.976562 0.28125 1.90625 0.1875 C 1.832031 0.101562 1.796875 -0.00390625 1.796875 -0.140625 L 1.796875 -13.546875 C 1.796875 -13.941406 1.78125 -14.226562 1.75 -14.40625 C 1.726562 -14.59375 1.632812 -14.753906 1.46875 -14.890625 C 1.300781 -15.035156 1.019531 -15.109375 0.625 -15.109375 C 0.4375 -15.109375 0.296875 -15.132812 0.203125 -15.1875 C 0.109375 -15.238281 0.0625 -15.363281 0.0625 -15.5625 C 0.0625 -15.65625 0.09375 -15.742188 0.15625 -15.828125 C 0.21875 -15.910156 0.3125 -15.957031 0.4375 -15.96875 C 1.394531 -16.113281 2.222656 -16.316406 2.921875 -16.578125 C 3.128906 -16.648438 3.300781 -16.691406 3.4375 -16.703125 L 3.515625 -16.703125 C 3.753906 -16.703125 3.875 -16.5625 3.875 -16.28125 L 3.875 -9.34375 L 3.953125 -9.34375 C 4.390625 -9.78125 4.890625 -10.109375 5.453125 -10.328125 C 6.015625 -10.554688 6.566406 -10.671875 7.109375 -10.671875 C 8.015625 -10.671875 8.832031 -10.441406 9.5625 -9.984375 C 10.300781 -9.523438 10.878906 -8.882812 11.296875 -8.0625 C 11.722656 -7.25 11.9375 -6.320312 11.9375 -5.28125 C 11.9375 -4.25 11.691406 -3.304688 11.203125 -2.453125 C 10.722656 -1.609375 10.078125 -0.941406 9.265625 -0.453125 C 8.460938 0.0351562 7.597656 0.28125 6.671875 0.28125 C 5.316406 0.28125 4.140625 -0.09375 3.140625 -0.84375 L 3.03125 -0.84375 C 2.96875 -0.726562 2.894531 -0.5625 2.8125 -0.34375 C 2.738281 -0.125 2.65625 0.0390625 2.5625 0.15625 C 2.476562 0.269531 2.363281 0.328125 2.21875 0.328125 Z M 6.46875 -0.5 C 7.40625 -0.5 8.160156 -0.921875 8.734375 -1.765625 C 9.304688 -2.617188 9.59375 -3.757812 9.59375 -5.1875 C 9.59375 -6.382812 9.316406 -7.40625 8.765625 -8.25 C 8.210938 -9.101562 7.394531 -9.53125 6.3125 -9.53125 C 5.34375 -9.53125 4.53125 -9.175781 3.875 -8.46875 L 3.875 -2.40625 C 3.925781 -2.164062 4.0625 -1.894531 4.28125 -1.59375 C 4.5 -1.289062 4.796875 -1.03125 5.171875 -0.8125 C 5.546875 -0.601562 5.976562 -0.5 6.46875 -0.5 Z M 6.46875 -0.5 "/></g></g></g></g><g fill="#ffffff" fill-opacity="1"><g transform="translate(13.536036, 20.927018)"><g><path d="M 6.296875 0.28125 C 5.253906 0.28125 4.328125 0.03125 3.515625 -0.46875 C 2.703125 -0.96875 2.066406 -1.625 1.609375 -2.4375 C 1.160156 -3.257812 0.9375 -4.128906 0.9375 -5.046875 C 0.9375 -6.191406 1.203125 -7.1875 1.734375 -8.03125 C 2.273438 -8.882812 2.957031 -9.535156 3.78125 -9.984375 C 4.613281 -10.441406 5.453125 -10.671875 6.296875 -10.671875 C 7.328125 -10.671875 8.25 -10.421875 9.0625 -9.921875 C 9.875 -9.429688 10.503906 -8.773438 10.953125 -7.953125 C 11.410156 -7.128906 11.640625 -6.257812 11.640625 -5.34375 C 11.640625 -4.195312 11.363281 -3.195312 10.8125 -2.34375 C 10.269531 -1.5 9.585938 -0.847656 8.765625 -0.390625 C 7.941406 0.0546875 7.117188 0.28125 6.296875 0.28125 Z M 6.296875 -0.578125 C 7.328125 -0.578125 8.082031 -1.019531 8.5625 -1.90625 C 9.050781 -2.789062 9.296875 -3.9375 9.296875 -5.34375 C 9.296875 -6.664062 9.046875 -7.742188 8.546875 -8.578125 C 8.046875 -9.410156 7.296875 -9.828125 6.296875 -9.828125 C 5.234375 -9.828125 4.460938 -9.390625 3.984375 -8.515625 C 3.515625 -7.640625 3.28125 -6.5 3.28125 -5.09375 C 3.28125 -3.78125 3.523438 -2.695312 4.015625 -1.84375 C 4.503906 -1 5.265625 -0.578125 6.296875 -0.578125 Z M 6.296875 -0.578125 "/></g></g></g><g fill="#ffffff" fill-opacity="1"><g transform="translate(26.104818, 20.927018)"><g><path d="M 5.765625 0.28125 C 4.898438 0.28125 4.097656 0.046875 3.359375 -0.421875 C 2.628906 -0.890625 2.039062 -1.539062 1.59375 -2.375 C 1.15625 -3.207031 0.9375 -4.148438 0.9375 -5.203125 C 0.9375 -6.160156 1.164062 -7.054688 1.625 -7.890625 C 2.082031 -8.734375 2.71875 -9.40625 3.53125 -9.90625 C 4.34375 -10.414062 5.25 -10.671875 6.25 -10.671875 C 6.71875 -10.671875 7.1875 -10.613281 7.65625 -10.5 C 8.132812 -10.382812 8.550781 -10.226562 8.90625 -10.03125 L 8.96875 -10.03125 L 8.96875 -13.546875 C 8.96875 -13.941406 8.957031 -14.226562 8.9375 -14.40625 C 8.914062 -14.59375 8.820312 -14.753906 8.65625 -14.890625 C 8.488281 -15.035156 8.203125 -15.109375 7.796875 -15.109375 C 7.617188 -15.109375 7.484375 -15.132812 7.390625 -15.1875 C 7.296875 -15.238281 7.25 -15.363281 7.25 -15.5625 C 7.25 -15.65625 7.28125 -15.742188 7.34375 -15.828125 C 7.40625 -15.910156 7.5 -15.957031 7.625 -15.96875 C 8.582031 -16.113281 9.40625 -16.316406 10.09375 -16.578125 C 10.3125 -16.648438 10.488281 -16.691406 10.625 -16.703125 L 10.703125 -16.703125 C 10.941406 -16.703125 11.0625 -16.5625 11.0625 -16.28125 L 11.0625 -2.109375 C 11.0625 -1.203125 11.660156 -0.75 12.859375 -0.75 C 13.117188 -0.75 13.25 -0.628906 13.25 -0.390625 C 13.25 -0.171875 13.117188 -0.0390625 12.859375 0 L 9.203125 0.25 C 9.097656 0.25 9.035156 0.210938 9.015625 0.140625 C 9.003906 0.078125 9 -0.0351562 9 -0.203125 L 9 -1.125 L 8.921875 -1.125 C 8.523438 -0.707031 8.039062 -0.367188 7.46875 -0.109375 C 6.894531 0.148438 6.328125 0.28125 5.765625 0.28125 Z M 6.546875 -0.875 C 7.078125 -0.875 7.53125 -0.972656 7.90625 -1.171875 C 8.28125 -1.378906 8.632812 -1.660156 8.96875 -2.015625 L 8.96875 -8.078125 C 8.832031 -8.523438 8.546875 -8.929688 8.109375 -9.296875 C 7.671875 -9.660156 7.125 -9.84375 6.46875 -9.84375 C 5.875 -9.84375 5.332031 -9.65625 4.84375 -9.28125 C 4.363281 -8.90625 3.988281 -8.359375 3.71875 -7.640625 C 3.445312 -6.921875 3.3125 -6.070312 3.3125 -5.09375 C 3.3125 -3.914062 3.585938 -2.914062 4.140625 -2.09375 C 4.703125 -1.28125 5.503906 -0.875 6.546875 -0.875 Z M 6.546875 -0.875 "/></g></g></g><g fill="#ffffff" fill-opacity="1"><g transform="translate(39.223971, 20.927018)"><g><path d="M 2.203125 5 C 1.546875 5 0.957031 4.785156 0.4375 4.359375 C -0.0703125 3.941406 -0.328125 3.445312 -0.328125 2.875 C -0.328125 2.1875 -0.132812 1.742188 0.25 1.546875 C 0.632812 1.359375 0.929688 1.265625 1.140625 1.265625 C 1.398438 1.265625 1.613281 1.316406 1.78125 1.421875 C 1.957031 1.523438 2.046875 1.625 2.046875 1.71875 C 2.046875 1.75 1.984375 1.828125 1.859375 1.953125 C 1.734375 2.078125 1.671875 2.289062 1.671875 2.59375 C 1.671875 2.894531 1.765625 3.160156 1.953125 3.390625 C 2.148438 3.617188 2.425781 3.734375 2.78125 3.734375 C 3.738281 3.734375 4.675781 2.75 5.59375 0.78125 C 5.65625 0.5625 5.6875 0.398438 5.6875 0.296875 C 5.6875 0.140625 5.648438 -0.0507812 5.578125 -0.28125 C 5.273438 -0.96875 4.765625 -2.242188 4.046875 -4.109375 C 3.410156 -5.773438 2.894531 -7.046875 2.5 -7.921875 C 2.238281 -8.515625 1.992188 -8.921875 1.765625 -9.140625 C 1.535156 -9.367188 1.195312 -9.515625 0.75 -9.578125 C 0.707031 -9.585938 0.625 -9.597656 0.5 -9.609375 C 0.382812 -9.628906 0.3125 -9.671875 0.28125 -9.734375 C 0.25 -9.796875 0.234375 -9.898438 0.234375 -10.046875 C 0.234375 -10.234375 0.28125 -10.347656 0.375 -10.390625 C 0.476562 -10.441406 0.601562 -10.46875 0.75 -10.46875 C 0.894531 -10.476562 0.988281 -10.484375 1.03125 -10.484375 C 1.96875 -10.535156 2.703125 -10.40625 3.234375 -10.09375 C 3.773438 -9.78125 4.21875 -9.234375 4.5625 -8.453125 C 4.90625 -7.671875 5.207031 -6.925781 5.46875 -6.21875 C 6.070312 -4.5625 6.566406 -3.351562 6.953125 -2.59375 L 7.03125 -2.59375 L 9.265625 -8.609375 C 9.347656 -8.867188 9.390625 -9.050781 9.390625 -9.15625 C 9.390625 -9.320312 9.3125 -9.4375 9.15625 -9.5 C 9 -9.5625 8.75 -9.59375 8.40625 -9.59375 L 8.265625 -9.59375 C 8.140625 -9.59375 8.050781 -9.613281 8 -9.65625 C 7.945312 -9.707031 7.910156 -9.820312 7.890625 -10 C 7.890625 -10.113281 7.914062 -10.21875 7.96875 -10.3125 C 8.03125 -10.414062 8.113281 -10.46875 8.21875 -10.46875 C 9.09375 -10.414062 9.832031 -10.390625 10.4375 -10.390625 C 10.6875 -10.390625 11.160156 -10.40625 11.859375 -10.4375 L 12.34375 -10.46875 C 12.457031 -10.46875 12.539062 -10.414062 12.59375 -10.3125 C 12.65625 -10.21875 12.6875 -10.113281 12.6875 -10 C 12.675781 -9.820312 12.640625 -9.707031 12.578125 -9.65625 C 12.515625 -9.613281 12.421875 -9.59375 12.296875 -9.59375 C 11.734375 -9.59375 11.296875 -9.5 10.984375 -9.3125 C 10.679688 -9.132812 10.425781 -8.773438 10.21875 -8.234375 C 9.863281 -7.367188 9.296875 -5.96875 8.515625 -4.03125 C 7.734375 -2.101562 7.148438 -0.679688 6.765625 0.234375 C 6.210938 1.546875 5.566406 2.664062 4.828125 3.59375 C 4.097656 4.53125 3.222656 5 2.203125 5 Z M 2.203125 5 "/></g></g></g><g fill="#ffffff" fill-opacity="1"><g transform="translate(51.884495, 20.927018)"><g/></g></g><g fill="#ffffff" fill-opacity="1"><g transform="translate(56.999165, 20.927018)"><g><path d="M 8.921875 0.453125 C 7.640625 0.453125 6.453125 0.234375 5.359375 -0.203125 C 4.265625 -0.648438 3.378906 -1.328125 2.703125 -2.234375 C 2.035156 -3.148438 1.703125 -4.285156 1.703125 -5.640625 C 1.703125 -6.773438 2.03125 -7.757812 2.6875 -8.59375 C 3.34375 -9.425781 4.273438 -9.941406 5.484375 -10.140625 L 5.484375 -10.21875 C 4.523438 -10.9375 4.046875 -11.832031 4.046875 -12.90625 C 4.046875 -13.914062 4.410156 -14.722656 5.140625 -15.328125 C 5.878906 -15.941406 6.890625 -16.25 8.171875 -16.25 C 9.085938 -16.25 9.859375 -16.046875 10.484375 -15.640625 C 11.117188 -15.234375 11.4375 -14.640625 11.4375 -13.859375 C 11.4375 -13.367188 11.289062 -12.945312 11 -12.59375 C 10.71875 -12.25 10.34375 -12.078125 9.875 -12.078125 C 9.582031 -12.078125 9.332031 -12.148438 9.125 -12.296875 C 8.914062 -12.453125 8.8125 -12.582031 8.8125 -12.6875 C 8.8125 -12.707031 8.878906 -12.773438 9.015625 -12.890625 C 9.160156 -13.015625 9.289062 -13.164062 9.40625 -13.34375 C 9.519531 -13.519531 9.578125 -13.722656 9.578125 -13.953125 C 9.578125 -14.398438 9.414062 -14.753906 9.09375 -15.015625 C 8.78125 -15.285156 8.390625 -15.421875 7.921875 -15.421875 C 7.179688 -15.421875 6.609375 -15.195312 6.203125 -14.75 C 5.796875 -14.3125 5.59375 -13.765625 5.59375 -13.109375 C 5.59375 -11.992188 6.0625 -11.179688 7 -10.671875 L 7.765625 -10.671875 C 8.003906 -10.671875 8.164062 -10.644531 8.25 -10.59375 C 8.332031 -10.539062 8.382812 -10.382812 8.40625 -10.125 C 8.40625 -9.96875 8.363281 -9.835938 8.28125 -9.734375 C 8.207031 -9.628906 8.101562 -9.578125 7.96875 -9.578125 L 7.15625 -9.578125 C 6.164062 -9.484375 5.410156 -9.09375 4.890625 -8.40625 C 4.378906 -7.71875 4.125 -6.921875 4.125 -6.015625 C 4.125 -5.035156 4.351562 -4.175781 4.8125 -3.4375 C 5.28125 -2.707031 5.921875 -2.140625 6.734375 -1.734375 C 7.554688 -1.335938 8.488281 -1.140625 9.53125 -1.140625 C 10.644531 -1.140625 11.664062 -1.375 12.59375 -1.84375 C 13.53125 -2.3125 14.273438 -2.953125 14.828125 -3.765625 C 15.378906 -4.585938 15.65625 -5.515625 15.65625 -6.546875 C 15.65625 -7.429688 15.410156 -8.203125 14.921875 -8.859375 C 14.429688 -9.515625 13.757812 -9.84375 12.90625 -9.84375 C 12.457031 -9.84375 12.019531 -9.71875 11.59375 -9.46875 C 11.175781 -9.21875 10.96875 -8.863281 10.96875 -8.40625 C 10.96875 -8.15625 11.03125 -7.941406 11.15625 -7.765625 C 11.289062 -7.585938 11.488281 -7.476562 11.75 -7.4375 C 12.144531 -7.394531 12.460938 -7.472656 12.703125 -7.671875 C 12.953125 -7.867188 13.09375 -7.972656 13.125 -7.984375 C 13.207031 -7.972656 13.304688 -7.867188 13.421875 -7.671875 C 13.535156 -7.484375 13.59375 -7.269531 13.59375 -7.03125 C 13.59375 -6.5625 13.429688 -6.195312 13.109375 -5.9375 C 12.796875 -5.675781 12.410156 -5.546875 11.953125 -5.546875 C 11.378906 -5.546875 10.914062 -5.78125 10.5625 -6.25 C 10.207031 -6.71875 10.03125 -7.320312 10.03125 -8.0625 C 10.03125 -9.15625 10.320312 -9.992188 10.90625 -10.578125 C 11.488281 -11.160156 12.175781 -11.554688 12.96875 -11.765625 C 13.757812 -11.972656 14.789062 -12.148438 16.0625 -12.296875 C 17.1875 -12.410156 18.003906 -12.550781 18.515625 -12.71875 C 18.859375 -12.84375 19.140625 -13.015625 19.359375 -13.234375 C 19.578125 -13.453125 19.6875 -13.703125 19.6875 -13.984375 C 19.6875 -14.441406 19.40625 -14.707031 18.84375 -14.78125 C 18.445312 -14.820312 18.125 -14.742188 17.875 -14.546875 C 17.632812 -14.347656 17.5 -14.242188 17.46875 -14.234375 C 17.375 -14.242188 17.265625 -14.363281 17.140625 -14.59375 C 17.023438 -14.820312 16.988281 -15.082031 17.03125 -15.375 C 17.09375 -15.800781 17.273438 -16.117188 17.578125 -16.328125 C 17.890625 -16.546875 18.25 -16.65625 18.65625 -16.65625 C 19 -16.65625 19.285156 -16.601562 19.515625 -16.5 C 19.878906 -16.332031 20.144531 -16.066406 20.3125 -15.703125 C 20.476562 -15.335938 20.5625 -14.929688 20.5625 -14.484375 C 20.5625 -13.660156 20.296875 -12.9375 19.765625 -12.3125 C 19.242188 -11.695312 18.535156 -11.222656 17.640625 -10.890625 C 16.753906 -10.554688 15.78125 -10.390625 14.71875 -10.390625 C 16.03125 -9.273438 16.6875 -7.984375 16.6875 -6.515625 C 16.6875 -5.109375 16.34375 -3.875 15.65625 -2.8125 C 14.976562 -1.757812 14.050781 -0.953125 12.875 -0.390625 C 11.695312 0.171875 10.378906 0.453125 8.921875 0.453125 Z M 8.921875 0.453125 "/></g></g></g><g fill="#ffffff" fill-opacity="1"><g transform="translate(77.8248, 20.927018)"><g/></g></g><g fill="#ffffff" fill-opacity="1"><g transform="translate(82.93947, 20.927018)"><g><path d="M 2.21875 0.328125 C 2.082031 0.328125 1.976562 0.28125 1.90625 0.1875 C 1.832031 0.101562 1.796875 -0.00390625 1.796875 -0.140625 L 1.796875 -13.546875 C 1.796875 -13.941406 1.78125 -14.226562 1.75 -14.40625 C 1.726562 -14.59375 1.632812 -14.753906 1.46875 -14.890625 C 1.300781 -15.035156 1.019531 -15.109375 0.625 -15.109375 C 0.4375 -15.109375 0.296875 -15.132812 0.203125 -15.1875 C 0.109375 -15.238281 0.0625 -15.363281 0.0625 -15.5625 C 0.0625 -15.65625 0.09375 -15.742188 0.15625 -15.828125 C 0.21875 -15.910156 0.3125 -15.957031 0.4375 -15.96875 C 1.394531 -16.113281 2.222656 -16.316406 2.921875 -16.578125 C 3.128906 -16.648438 3.300781 -16.691406 3.4375 -16.703125 L 3.515625 -16.703125 C 3.753906 -16.703125 3.875 -16.5625 3.875 -16.28125 L 3.875 -9.34375 L 3.953125 -9.34375 C 4.390625 -9.78125 4.890625 -10.109375 5.453125 -10.328125 C 6.015625 -10.554688 6.566406 -10.671875 7.109375 -10.671875 C 8.015625 -10.671875 8.832031 -10.441406 9.5625 -9.984375 C 10.300781 -9.523438 10.878906 -8.882812 11.296875 -8.0625 C 11.722656 -7.25 11.9375 -6.320312 11.9375 -5.28125 C 11.9375 -4.25 11.691406 -3.304688 11.203125 -2.453125 C 10.722656 -1.609375 10.078125 -0.941406 9.265625 -0.453125 C 8.460938 0.0351562 7.597656 0.28125 6.671875 0.28125 C 5.316406 0.28125 4.140625 -0.09375 3.140625 -0.84375 L 3.03125 -0.84375 C 2.96875 -0.726562 2.894531 -0.5625 2.8125 -0.34375 C 2.738281 -0.125 2.65625 0.0390625 2.5625 0.15625 C 2.476562 0.269531 2.363281 0.328125 2.21875 0.328125 Z M 6.46875 -0.5 C 7.40625 -0.5 8.160156 -0.921875 8.734375 -1.765625 C 9.304688 -2.617188 9.59375 -3.757812 9.59375 -5.1875 C 9.59375 -6.382812 9.316406 -7.40625 8.765625 -8.25 C 8.210938 -9.101562 7.394531 -9.53125 6.3125 -9.53125 C 5.34375 -9.53125 4.53125 -9.175781 3.875 -8.46875 L 3.875 -2.40625 C 3.925781 -2.164062 4.0625 -1.894531 4.28125 -1.59375 C 4.5 -1.289062 4.796875 -1.03125 5.171875 -0.8125 C 5.546875 -0.601562 5.976562 -0.5 6.46875 -0.5 Z M 6.46875 -0.5 "/></g></g></g><g fill="#ffffff" fill-opacity="1"><g transform="translate(95.806417, 20.927018)"><g><path d="M 6.3125 0.28125 C 5.164062 0.28125 4.191406 0.0351562 3.390625 -0.453125 C 2.585938 -0.941406 1.976562 -1.609375 1.5625 -2.453125 C 1.144531 -3.296875 0.9375 -4.226562 0.9375 -5.25 C 0.9375 -6.15625 1.144531 -7.023438 1.5625 -7.859375 C 1.988281 -8.691406 2.59375 -9.367188 3.375 -9.890625 C 4.15625 -10.410156 5.050781 -10.671875 6.0625 -10.671875 C 7.425781 -10.671875 8.472656 -10.320312 9.203125 -9.625 C 9.941406 -8.925781 10.363281 -7.988281 10.46875 -6.8125 C 10.46875 -6.3125 10.328125 -5.96875 10.046875 -5.78125 C 9.773438 -5.601562 9.378906 -5.515625 8.859375 -5.515625 L 3.28125 -5.515625 C 3.28125 -4.085938 3.570312 -2.957031 4.15625 -2.125 C 4.75 -1.289062 5.664062 -0.875 6.90625 -0.875 C 7.5625 -0.875 8.117188 -1.015625 8.578125 -1.296875 C 9.035156 -1.578125 9.472656 -2.054688 9.890625 -2.734375 C 9.960938 -2.804688 10.039062 -2.84375 10.125 -2.84375 C 10.226562 -2.84375 10.316406 -2.8125 10.390625 -2.75 C 10.546875 -2.65625 10.625 -2.519531 10.625 -2.34375 C 10.625 -2.25 10.609375 -2.179688 10.578125 -2.140625 C 10.109375 -1.367188 9.507812 -0.769531 8.78125 -0.34375 C 8.050781 0.0703125 7.226562 0.28125 6.3125 0.28125 Z M 7.03125 -6.375 C 7.800781 -6.375 8.210938 -6.695312 8.265625 -7.34375 C 8.265625 -8.050781 8.070312 -8.648438 7.6875 -9.140625 C 7.300781 -9.628906 6.757812 -9.875 6.0625 -9.875 C 5.28125 -9.875 4.632812 -9.5625 4.125 -8.9375 C 3.625 -8.320312 3.34375 -7.46875 3.28125 -6.375 Z M 7.03125 -6.375 "/></g></g></g><g fill="#ffffff" fill-opacity="1"><g transform="translate(107.320146, 20.927018)"><g><path d="M 3.859375 0.28125 C 2.941406 0.28125 2.195312 0.0195312 1.625 -0.5 C 1.0625 -1.019531 0.78125 -1.671875 0.78125 -2.453125 C 0.78125 -3.421875 1.097656 -4.144531 1.734375 -4.625 C 2.378906 -5.101562 3.144531 -5.414062 4.03125 -5.5625 C 4.925781 -5.707031 6.078125 -5.820312 7.484375 -5.90625 L 7.484375 -7.71875 C 7.484375 -8.46875 7.296875 -9.035156 6.921875 -9.421875 C 6.546875 -9.804688 5.945312 -10 5.125 -10 C 4.644531 -10 4.226562 -9.851562 3.875 -9.5625 C 3.519531 -9.28125 3.34375 -8.894531 3.34375 -8.40625 C 3.34375 -8.15625 3.398438 -7.945312 3.515625 -7.78125 C 3.640625 -7.625 3.765625 -7.492188 3.890625 -7.390625 C 4.015625 -7.285156 4.078125 -7.222656 4.078125 -7.203125 C 4.078125 -7.109375 3.984375 -6.988281 3.796875 -6.84375 C 3.609375 -6.707031 3.375 -6.640625 3.09375 -6.640625 C 2.632812 -6.640625 2.269531 -6.804688 2 -7.140625 C 1.738281 -7.472656 1.609375 -7.867188 1.609375 -8.328125 C 1.609375 -9.128906 1.960938 -9.71875 2.671875 -10.09375 C 3.378906 -10.476562 4.238281 -10.671875 5.25 -10.671875 C 6.507812 -10.671875 7.53125 -10.429688 8.3125 -9.953125 C 9.101562 -9.484375 9.5 -8.609375 9.5 -7.328125 L 9.5 -1.96875 C 9.519531 -1.644531 9.617188 -1.335938 9.796875 -1.046875 C 9.984375 -0.765625 10.285156 -0.625 10.703125 -0.625 C 10.816406 -0.625 10.898438 -0.597656 10.953125 -0.546875 C 11.015625 -0.503906 11.046875 -0.40625 11.046875 -0.25 C 11.046875 -0.0703125 10.898438 0.0546875 10.609375 0.140625 C 10.328125 0.234375 10.050781 0.28125 9.78125 0.28125 C 9.195312 0.28125 8.679688 0.113281 8.234375 -0.21875 C 7.796875 -0.5625 7.546875 -1.015625 7.484375 -1.578125 C 7.160156 -0.984375 6.664062 -0.523438 6 -0.203125 C 5.332031 0.117188 4.617188 0.28125 3.859375 0.28125 Z M 4.59375 -0.96875 C 5.113281 -0.96875 5.59375 -1.097656 6.03125 -1.359375 C 6.476562 -1.617188 6.832031 -1.972656 7.09375 -2.421875 C 7.351562 -2.867188 7.484375 -3.367188 7.484375 -3.921875 L 7.484375 -5.234375 C 5.878906 -5.109375 4.742188 -4.847656 4.078125 -4.453125 C 3.421875 -4.054688 3.09375 -3.414062 3.09375 -2.53125 C 3.09375 -1.488281 3.59375 -0.96875 4.59375 -0.96875 Z M 4.59375 -0.96875 "/></g></g></g><g fill="#ffffff" fill-opacity="1"><g transform="translate(118.673271, 20.927018)"><g><path d="M 5.515625 0.28125 C 4.472656 0.28125 3.644531 -0.03125 3.03125 -0.65625 C 2.414062 -1.289062 2.109375 -2.117188 2.109375 -3.140625 L 2.109375 -7.390625 C 2.109375 -7.785156 2.097656 -8.070312 2.078125 -8.25 C 2.054688 -8.4375 1.957031 -8.597656 1.78125 -8.734375 C 1.613281 -8.878906 1.332031 -8.953125 0.9375 -8.953125 C 0.757812 -8.953125 0.625 -8.976562 0.53125 -9.03125 C 0.4375 -9.082031 0.390625 -9.207031 0.390625 -9.40625 C 0.390625 -9.5 0.421875 -9.585938 0.484375 -9.671875 C 0.546875 -9.753906 0.632812 -9.804688 0.75 -9.828125 C 1.71875 -9.960938 2.546875 -10.160156 3.234375 -10.421875 C 3.453125 -10.492188 3.628906 -10.539062 3.765625 -10.5625 L 3.828125 -10.5625 C 4.078125 -10.5625 4.203125 -10.414062 4.203125 -10.125 L 4.203125 -3.171875 C 4.203125 -2.460938 4.421875 -1.921875 4.859375 -1.546875 C 5.304688 -1.171875 5.820312 -0.984375 6.40625 -0.984375 C 7.125 -0.984375 7.734375 -1.160156 8.234375 -1.515625 C 8.742188 -1.867188 9.082031 -2.222656 9.25 -2.578125 L 9.25 -7.390625 C 9.25 -7.785156 9.238281 -8.070312 9.21875 -8.25 C 9.195312 -8.4375 9.097656 -8.597656 8.921875 -8.734375 C 8.753906 -8.878906 8.472656 -8.953125 8.078125 -8.953125 C 7.890625 -8.953125 7.75 -8.976562 7.65625 -9.03125 C 7.570312 -9.082031 7.53125 -9.207031 7.53125 -9.40625 C 7.53125 -9.5 7.5625 -9.585938 7.625 -9.671875 C 7.6875 -9.753906 7.773438 -9.804688 7.890625 -9.828125 C 8.859375 -9.960938 9.6875 -10.160156 10.375 -10.421875 C 10.59375 -10.492188 10.769531 -10.539062 10.90625 -10.5625 L 10.96875 -10.5625 C 11.21875 -10.5625 11.34375 -10.414062 11.34375 -10.125 L 11.34375 -2.1875 C 11.34375 -1.28125 11.945312 -0.828125 13.15625 -0.828125 C 13.414062 -0.828125 13.546875 -0.679688 13.546875 -0.390625 C 13.546875 -0.171875 13.414062 -0.0390625 13.15625 0 L 9.453125 0.25 C 9.347656 0.25 9.285156 0.210938 9.265625 0.140625 C 9.253906 0.078125 9.25 -0.0351562 9.25 -0.203125 L 9.25 -1.484375 L 9.203125 -1.484375 C 8.753906 -1.078125 8.394531 -0.757812 8.125 -0.53125 C 7.851562 -0.3125 7.5 -0.125 7.0625 0.03125 C 6.625 0.195312 6.109375 0.28125 5.515625 0.28125 Z M 5.515625 0.28125 "/></g></g></g><g fill="#ffffff" fill-opacity="1"><g transform="translate(132.342959, 20.927018)"><g><path d="M 4.953125 0.390625 C 4.203125 0.390625 3.554688 0.113281 3.015625 -0.4375 C 2.484375 -0.988281 2.21875 -1.773438 2.21875 -2.796875 L 2.21875 -9.546875 L 0.890625 -9.5 C 0.796875 -9.5 0.71875 -9.539062 0.65625 -9.625 C 0.601562 -9.707031 0.578125 -9.804688 0.578125 -9.921875 C 0.578125 -10.054688 0.601562 -10.171875 0.65625 -10.265625 C 0.707031 -10.367188 0.785156 -10.425781 0.890625 -10.4375 C 1.429688 -10.550781 1.847656 -10.722656 2.140625 -10.953125 C 2.441406 -11.191406 2.660156 -11.453125 2.796875 -11.734375 C 2.929688 -12.023438 3.101562 -12.457031 3.3125 -13.03125 C 3.382812 -13.226562 3.550781 -13.328125 3.8125 -13.328125 C 3.914062 -13.328125 4.019531 -13.300781 4.125 -13.25 C 4.238281 -13.195312 4.296875 -13.117188 4.296875 -13.015625 L 4.125 -10.390625 L 6.8125 -10.5625 L 6.859375 -10.5625 C 7.054688 -10.5625 7.15625 -10.414062 7.15625 -10.125 C 7.15625 -9.957031 7.128906 -9.800781 7.078125 -9.65625 C 7.023438 -9.507812 6.960938 -9.4375 6.890625 -9.4375 L 4.3125 -9.5 L 4.3125 -2.53125 C 4.3125 -2.019531 4.414062 -1.59375 4.625 -1.25 C 4.832031 -0.914062 5.171875 -0.75 5.640625 -0.75 C 6.117188 -0.75 6.539062 -0.835938 6.90625 -1.015625 C 7.101562 -1.085938 7.226562 -1.125 7.28125 -1.125 C 7.382812 -1.125 7.46875 -1.082031 7.53125 -1 C 7.59375 -0.914062 7.65625 -0.804688 7.71875 -0.671875 C 7.726562 -0.640625 7.734375 -0.597656 7.734375 -0.546875 C 7.734375 -0.484375 7.6875 -0.414062 7.59375 -0.34375 C 7.15625 -0.0507812 6.738281 0.140625 6.34375 0.234375 C 5.957031 0.335938 5.492188 0.390625 4.953125 0.390625 Z M 4.953125 0.390625 "/></g></g></g><g fill="#ffffff" fill-opacity="1"><g transform="translate(141.035596, 20.927018)"><g><path d="M 2.203125 5 C 1.546875 5 0.957031 4.785156 0.4375 4.359375 C -0.0703125 3.941406 -0.328125 3.445312 -0.328125 2.875 C -0.328125 2.1875 -0.132812 1.742188 0.25 1.546875 C 0.632812 1.359375 0.929688 1.265625 1.140625 1.265625 C 1.398438 1.265625 1.613281 1.316406 1.78125 1.421875 C 1.957031 1.523438 2.046875 1.625 2.046875 1.71875 C 2.046875 1.75 1.984375 1.828125 1.859375 1.953125 C 1.734375 2.078125 1.671875 2.289062 1.671875 2.59375 C 1.671875 2.894531 1.765625 3.160156 1.953125 3.390625 C 2.148438 3.617188 2.425781 3.734375 2.78125 3.734375 C 3.738281 3.734375 4.675781 2.75 5.59375 0.78125 C 5.65625 0.5625 5.6875 0.398438 5.6875 0.296875 C 5.6875 0.140625 5.648438 -0.0507812 5.578125 -0.28125 C 5.273438 -0.96875 4.765625 -2.242188 4.046875 -4.109375 C 3.410156 -5.773438 2.894531 -7.046875 2.5 -7.921875 C 2.238281 -8.515625 1.992188 -8.921875 1.765625 -9.140625 C 1.535156 -9.367188 1.195312 -9.515625 0.75 -9.578125 C 0.707031 -9.585938 0.625 -9.597656 0.5 -9.609375 C 0.382812 -9.628906 0.3125 -9.671875 0.28125 -9.734375 C 0.25 -9.796875 0.234375 -9.898438 0.234375 -10.046875 C 0.234375 -10.234375 0.28125 -10.347656 0.375 -10.390625 C 0.476562 -10.441406 0.601562 -10.46875 0.75 -10.46875 C 0.894531 -10.476562 0.988281 -10.484375 1.03125 -10.484375 C 1.96875 -10.535156 2.703125 -10.40625 3.234375 -10.09375 C 3.773438 -9.78125 4.21875 -9.234375 4.5625 -8.453125 C 4.90625 -7.671875 5.207031 -6.925781 5.46875 -6.21875 C 6.070312 -4.5625 6.566406 -3.351562 6.953125 -2.59375 L 7.03125 -2.59375 L 9.265625 -8.609375 C 9.347656 -8.867188 9.390625 -9.050781 9.390625 -9.15625 C 9.390625 -9.320312 9.3125 -9.4375 9.15625 -9.5 C 9 -9.5625 8.75 -9.59375 8.40625 -9.59375 L 8.265625 -9.59375 C 8.140625 -9.59375 8.050781 -9.613281 8 -9.65625 C 7.945312 -9.707031 7.910156 -9.820312 7.890625 -10 C 7.890625 -10.113281 7.914062 -10.21875 7.96875 -10.3125 C 8.03125 -10.414062 8.113281 -10.46875 8.21875 -10.46875 C 9.09375 -10.414062 9.832031 -10.390625 10.4375 -10.390625 C 10.6875 -10.390625 11.160156 -10.40625 11.859375 -10.4375 L 12.34375 -10.46875 C 12.457031 -10.46875 12.539062 -10.414062 12.59375 -10.3125 C 12.65625 -10.21875 12.6875 -10.113281 12.6875 -10 C 12.675781 -9.820312 12.640625 -9.707031 12.578125 -9.65625 C 12.515625 -9.613281 12.421875 -9.59375 12.296875 -9.59375 C 11.734375 -9.59375 11.296875 -9.5 10.984375 -9.3125 C 10.679688 -9.132812 10.425781 -8.773438 10.21875 -8.234375 C 9.863281 -7.367188 9.296875 -5.96875 8.515625 -4.03125 C 7.734375 -2.101562 7.148438 -0.679688 6.765625 0.234375 C 6.210938 1.546875 5.566406 2.664062 4.828125 3.59375 C 4.097656 4.53125 3.222656 5 2.203125 5 Z M 2.203125 5 "/></g></g></g></g></g></g></g></g></svg>