<svg xmlns="http://www.w3.org/2000/svg" xmlns:xlink="http://www.w3.org/1999/xlink" width="500" zoomAndPan="magnify" viewBox="0 0 375 187.499995" height="250" preserveAspectRatio="xMidYMid meet" version="1.0"><defs><g/><clipPath id="b96ccce169"><path d="M 0.5 0 L 374.5 0 L 374.5 187 L 0.5 187 Z M 0.5 0 " clip-rule="nonzero"/></clipPath><clipPath id="1d853f3f41"><rect x="0" width="344" y="0" height="125"/></clipPath></defs><g clip-path="url(#b96ccce169)"><path fill="#ffffff" d="M 0.5 0 L 374.5 0 L 374.5 187 L 0.5 187 Z M 0.5 0 " fill-opacity="1" fill-rule="nonzero"/><path fill="#1c3b14" d="M 0.5 0 L 374.5 0 L 374.5 187 L 0.5 187 Z M 0.5 0 " fill-opacity="1" fill-rule="nonzero"/></g><g transform="matrix(1, 0, 0, 1, 17, 11)"><g clip-path="url(#1d853f3f41)"><g fill="#ffffff" fill-opacity="1"><g transform="translate(0.95741, 100.8595)"><g><path d="M 70.5 -63.25 C 68.414062 -63.125 66.914062 -62.875 66 -62.5 C 65.082031 -62.132812 64.453125 -61.429688 64.109375 -60.390625 C 63.773438 -59.347656 63.609375 -57.664062 63.609375 -55.34375 L 63.609375 -9.75 C 63.609375 -7.414062 63.773438 -5.726562 64.109375 -4.6875 C 64.453125 -3.644531 65.082031 -2.9375 66 -2.5625 C 66.914062 -2.195312 68.414062 -1.957031 70.5 -1.84375 L 70.5 0 C 67.5 -0.1875 62.84375 -0.28125 56.53125 -0.28125 C 50.34375 -0.28125 45.53125 -0.1875 42.09375 0 L 42.09375 -1.84375 C 44.125 -1.957031 45.613281 -2.195312 46.5625 -2.5625 C 47.507812 -2.9375 48.148438 -3.644531 48.484375 -4.6875 C 48.828125 -5.726562 49 -7.414062 49 -9.75 L 49 -31.8125 L 24.640625 -31.8125 L 24.640625 -9.75 C 24.640625 -7.414062 24.804688 -5.726562 25.140625 -4.6875 C 25.472656 -3.644531 26.097656 -2.9375 27.015625 -2.5625 C 27.941406 -2.195312 29.445312 -1.957031 31.53125 -1.84375 L 31.53125 0 C 28.21875 -0.1875 23.59375 -0.28125 17.65625 -0.28125 C 11.09375 -0.28125 6.25 -0.1875 3.125 0 L 3.125 -1.84375 C 5.144531 -1.957031 6.628906 -2.195312 7.578125 -2.5625 C 8.535156 -2.9375 9.179688 -3.644531 9.515625 -4.6875 C 9.847656 -5.726562 10.015625 -7.414062 10.015625 -9.75 L 10.015625 -55.34375 C 10.015625 -57.664062 9.847656 -59.347656 9.515625 -60.390625 C 9.179688 -61.429688 8.535156 -62.132812 7.578125 -62.5 C 6.628906 -62.875 5.144531 -63.125 3.125 -63.25 L 3.125 -65.078125 C 6.25 -64.898438 11.09375 -64.8125 17.65625 -64.8125 C 23.59375 -64.8125 28.21875 -64.898438 31.53125 -65.078125 L 31.53125 -63.25 C 29.445312 -63.125 27.941406 -62.875 27.015625 -62.5 C 26.097656 -62.132812 25.472656 -61.429688 25.140625 -60.390625 C 24.804688 -59.347656 24.640625 -57.664062 24.640625 -55.34375 L 24.640625 -33.640625 L 49 -33.640625 L 49 -55.34375 C 49 -57.664062 48.828125 -59.347656 48.484375 -60.390625 C 48.148438 -61.429688 47.507812 -62.132812 46.5625 -62.5 C 45.613281 -62.875 44.125 -63.125 42.09375 -63.25 L 42.09375 -65.078125 C 45.53125 -64.898438 50.34375 -64.8125 56.53125 -64.8125 C 62.84375 -64.8125 67.5 -64.898438 70.5 -65.078125 Z M 70.5 -63.25 "/></g></g></g><g fill="#ffffff" fill-opacity="1"><g transform="translate(77.243636, 100.8595)"><g><path d="M 53.5 -13.96875 C 53.5 -8.332031 53.710938 -3.675781 54.140625 0 C 49.972656 -0.1875 42.957031 -0.28125 33.09375 -0.28125 C 19.726562 -0.28125 9.738281 -0.1875 3.125 0 L 3.125 -1.84375 C 5.144531 -1.957031 6.628906 -2.195312 7.578125 -2.5625 C 8.535156 -2.9375 9.179688 -3.644531 9.515625 -4.6875 C 9.847656 -5.726562 10.015625 -7.414062 10.015625 -9.75 L 10.015625 -55.34375 C 10.015625 -57.664062 9.847656 -59.347656 9.515625 -60.390625 C 9.179688 -61.429688 8.535156 -62.132812 7.578125 -62.5 C 6.628906 -62.875 5.144531 -63.125 3.125 -63.25 L 3.125 -65.078125 C 9.738281 -64.898438 19.726562 -64.8125 33.09375 -64.8125 C 42.101562 -64.8125 48.503906 -64.898438 52.296875 -65.078125 C 51.867188 -59.992188 51.65625 -55.457031 51.65625 -51.46875 C 51.65625 -48.78125 51.75 -46.695312 51.9375 -45.21875 L 49.828125 -45.21875 C 48.898438 -51.78125 47.238281 -56.378906 44.84375 -59.015625 C 42.457031 -61.648438 39.09375 -62.96875 34.75 -62.96875 L 30.984375 -62.96875 C 29.078125 -62.96875 27.691406 -62.8125 26.828125 -62.5 C 25.972656 -62.195312 25.394531 -61.597656 25.09375 -60.703125 C 24.789062 -59.816406 24.640625 -58.394531 24.640625 -56.4375 L 24.640625 -33.640625 L 27.578125 -33.640625 C 30.828125 -33.640625 33.289062 -34.832031 34.96875 -37.21875 C 36.65625 -39.613281 37.835938 -42.46875 38.515625 -45.78125 L 40.625 -45.78125 C 40.445312 -43.207031 40.359375 -40.328125 40.359375 -37.140625 L 40.359375 -32.71875 C 40.359375 -29.59375 40.539062 -25.242188 40.90625 -19.671875 L 38.796875 -19.671875 C 37.503906 -27.765625 33.765625 -31.8125 27.578125 -31.8125 L 24.640625 -31.8125 L 24.640625 -8.640625 C 24.640625 -6.679688 24.789062 -5.253906 25.09375 -4.359375 C 25.394531 -3.472656 25.972656 -2.875 26.828125 -2.5625 C 27.691406 -2.257812 29.078125 -2.109375 30.984375 -2.109375 L 35.484375 -2.109375 C 39.835938 -2.109375 43.34375 -3.59375 46 -6.5625 C 48.664062 -9.539062 50.550781 -14.582031 51.65625 -21.6875 L 53.78125 -21.6875 C 53.59375 -19.664062 53.5 -17.09375 53.5 -13.96875 Z M 53.5 -13.96875 "/></g></g></g><g fill="#ffffff" fill-opacity="1"><g transform="translate(138.27267, 100.8595)"><g><path d="M 31.53125 -65.078125 C 43.476562 -65.078125 52.421875 -62.363281 58.359375 -56.9375 C 64.304688 -51.519531 67.28125 -43.632812 67.28125 -33.28125 C 67.28125 -26.59375 65.820312 -20.75 62.90625 -15.75 C 60 -10.757812 55.800781 -6.882812 50.3125 -4.125 C 44.832031 -1.375 38.296875 0 30.703125 0 L 25 -0.09375 C 21.445312 -0.21875 18.875 -0.28125 17.28125 -0.28125 C 10.96875 -0.28125 6.25 -0.1875 3.125 0 L 3.125 -1.84375 C 5.144531 -1.957031 6.628906 -2.195312 7.578125 -2.5625 C 8.535156 -2.9375 9.179688 -3.644531 9.515625 -4.6875 C 9.847656 -5.726562 10.015625 -7.414062 10.015625 -9.75 L 10.015625 -55.34375 C 10.015625 -57.664062 9.847656 -59.347656 9.515625 -60.390625 C 9.179688 -61.429688 8.535156 -62.132812 7.578125 -62.5 C 6.628906 -62.875 5.144531 -63.125 3.125 -63.25 L 3.125 -65.078125 C 5.695312 -64.898438 9.40625 -64.8125 14.25 -64.8125 L 17.09375 -64.8125 L 20.78125 -64.890625 C 25.800781 -65.015625 29.382812 -65.078125 31.53125 -65.078125 Z M 31.4375 -63.421875 C 29.539062 -63.421875 28.113281 -63.207031 27.15625 -62.78125 C 26.207031 -62.351562 25.550781 -61.585938 25.1875 -60.484375 C 24.820312 -59.378906 24.640625 -57.722656 24.640625 -55.515625 L 24.640625 -9.5625 C 24.640625 -7.351562 24.820312 -5.695312 25.1875 -4.59375 C 25.550781 -3.488281 26.207031 -2.722656 27.15625 -2.296875 C 28.113281 -1.867188 29.570312 -1.65625 31.53125 -1.65625 C 38.945312 -1.65625 44.21875 -4.242188 47.34375 -9.421875 C 50.46875 -14.597656 52.03125 -22.425781 52.03125 -32.90625 C 52.03125 -43.382812 50.421875 -51.085938 47.203125 -56.015625 C 43.984375 -60.953125 38.726562 -63.421875 31.4375 -63.421875 Z M 31.4375 -63.421875 "/></g></g></g><g fill="#ffffff" fill-opacity="1"><g transform="translate(212.353033, 100.8595)"><g><path d="M 65.453125 -4.046875 C 63.796875 -2.140625 62.015625 -0.773438 60.109375 0.046875 C 58.210938 0.867188 55.914062 1.28125 53.21875 1.28125 C 49.664062 1.28125 46.863281 0.53125 44.8125 -0.96875 C 42.757812 -2.46875 41.425781 -5.023438 40.8125 -8.640625 L 39.15625 -17.828125 C 38.363281 -22.304688 37.398438 -25.601562 36.265625 -27.71875 C 35.128906 -29.832031 33.242188 -30.890625 30.609375 -30.890625 L 24.640625 -30.890625 L 24.640625 -9.75 C 24.640625 -7.414062 24.804688 -5.726562 25.140625 -4.6875 C 25.472656 -3.644531 26.097656 -2.9375 27.015625 -2.5625 C 27.941406 -2.195312 29.445312 -1.957031 31.53125 -1.84375 L 31.53125 0 C 28.21875 -0.1875 23.59375 -0.28125 17.65625 -0.28125 C 11.09375 -0.28125 6.25 -0.1875 3.125 0 L 3.125 -1.84375 C 5.144531 -1.957031 6.628906 -2.195312 7.578125 -2.5625 C 8.535156 -2.9375 9.179688 -3.644531 9.515625 -4.6875 C 9.847656 -5.726562 10.015625 -7.414062 10.015625 -9.75 L 10.015625 -55.34375 C 10.015625 -57.664062 9.847656 -59.347656 9.515625 -60.390625 C 9.179688 -61.429688 8.535156 -62.132812 7.578125 -62.5 C 6.628906 -62.875 5.144531 -63.125 3.125 -63.25 L 3.125 -65.078125 C 6.25 -64.898438 10.90625 -64.8125 17.09375 -64.8125 L 27.296875 -64.890625 C 28.523438 -64.953125 29.9375 -64.984375 31.53125 -64.984375 C 39.988281 -64.984375 46.34375 -63.601562 50.59375 -60.84375 C 54.851562 -58.09375 56.984375 -54.144531 56.984375 -49 C 56.984375 -44.644531 55.390625 -40.8125 52.203125 -37.5 C 49.023438 -34.195312 43.757812 -32.113281 36.40625 -31.25 C 41.914062 -30.757812 46.019531 -29.5625 48.71875 -27.65625 C 51.414062 -25.757812 53.160156 -22.914062 53.953125 -19.125 L 56.078125 -9.65625 C 56.566406 -7.195312 57.128906 -5.476562 57.765625 -4.5 C 58.410156 -3.519531 59.316406 -3.03125 60.484375 -3.03125 C 61.222656 -3.09375 61.851562 -3.273438 62.375 -3.578125 C 62.894531 -3.890625 63.488281 -4.410156 64.15625 -5.140625 Z M 30.328125 -63.25 C 28.679688 -63.25 27.472656 -63.03125 26.703125 -62.59375 C 25.929688 -62.164062 25.394531 -61.398438 25.09375 -60.296875 C 24.789062 -59.191406 24.640625 -57.539062 24.640625 -55.34375 L 24.640625 -32.71875 L 28.59375 -32.71875 C 33.613281 -32.71875 37.054688 -34.050781 38.921875 -36.71875 C 40.796875 -39.382812 41.734375 -43.140625 41.734375 -47.984375 C 41.734375 -53.003906 40.84375 -56.800781 39.0625 -59.375 C 37.289062 -61.957031 34.378906 -63.25 30.328125 -63.25 Z M 30.328125 -63.25 "/></g></g></g><g fill="#ffffff" fill-opacity="1"><g transform="translate(278.712892, 100.8595)"><g><path d="M 56.171875 -7.71875 C 56.960938 -5.695312 57.878906 -4.226562 58.921875 -3.3125 C 59.960938 -2.394531 60.972656 -1.90625 61.953125 -1.84375 L 61.953125 0 C 58.273438 -0.1875 53.617188 -0.28125 47.984375 -0.28125 C 41.734375 -0.28125 37.078125 -0.1875 34.015625 0 L 34.015625 -1.84375 C 36.335938 -1.957031 37.988281 -2.242188 38.96875 -2.703125 C 39.957031 -3.171875 40.453125 -3.984375 40.453125 -5.140625 C 40.453125 -6.242188 40.082031 -7.71875 39.34375 -9.5625 L 33.828125 -24.640625 L 13.78125 -24.640625 L 11.390625 -18.296875 C 9.679688 -13.878906 8.828125 -10.476562 8.828125 -8.09375 C 8.828125 -5.820312 9.515625 -4.238281 10.890625 -3.34375 C 12.273438 -2.457031 14.3125 -1.957031 17 -1.84375 L 17 0 C 12.832031 -0.1875 9.035156 -0.28125 5.609375 -0.28125 C 2.785156 -0.28125 0.457031 -0.1875 -1.375 0 L -1.375 -1.84375 C 1.625 -2.394531 4.257812 -5.609375 6.53125 -11.484375 L 27.484375 -65.265625 C 28.160156 -65.203125 29.234375 -65.171875 30.703125 -65.171875 C 32.171875 -65.171875 33.210938 -65.203125 33.828125 -65.265625 Z M 33.1875 -26.46875 L 24.078125 -51.296875 L 14.53125 -26.46875 Z M 33.1875 -26.46875 "/></g></g></g></g></g><g fill="#ffffff" fill-opacity="1"><g transform="translate(57.504372, 143.278714)"><g><path d="M 3.734375 -9.3125 L 0.0625 -9.3125 L 0.0625 -11.484375 L 10.078125 -11.484375 L 10.078125 -9.3125 L 6.40625 -9.3125 L 6.40625 0 L 3.734375 0 Z M 3.734375 -9.3125 "/></g></g></g><g fill="#ffffff" fill-opacity="1"><g transform="translate(71.805727, 143.278714)"><g><path d="M 11.890625 -11.484375 L 11.890625 0 L 9.234375 0 L 9.234375 -4.703125 L 4.015625 -4.703125 L 4.015625 0 L 1.359375 0 L 1.359375 -11.484375 L 4.015625 -11.484375 L 4.015625 -6.953125 L 9.234375 -6.953125 L 9.234375 -11.484375 Z M 11.890625 -11.484375 "/></g></g></g><g fill="#ffffff" fill-opacity="1"><g transform="translate(89.222645, 143.278714)"><g><path d="M 10.25 -2.140625 L 10.25 0 L 1.359375 0 L 1.359375 -11.484375 L 10.046875 -11.484375 L 10.046875 -9.359375 L 4 -9.359375 L 4 -6.859375 L 9.328125 -6.859375 L 9.328125 -4.796875 L 4 -4.796875 L 4 -2.140625 Z M 10.25 -2.140625 "/></g></g></g><g fill="#ffffff" fill-opacity="1"><g transform="translate(104.393081, 143.278714)"><g/></g></g><g fill="#ffffff" fill-opacity="1"><g transform="translate(113.201215, 143.278714)"><g><path d="M 5.140625 0.203125 C 4.234375 0.203125 3.351562 0.078125 2.5 -0.171875 C 1.65625 -0.421875 0.972656 -0.738281 0.453125 -1.125 L 1.359375 -3.140625 C 1.847656 -2.773438 2.429688 -2.484375 3.109375 -2.265625 C 3.796875 -2.046875 4.476562 -1.9375 5.15625 -1.9375 C 5.90625 -1.9375 6.457031 -2.046875 6.8125 -2.265625 C 7.175781 -2.492188 7.359375 -2.796875 7.359375 -3.171875 C 7.359375 -3.441406 7.253906 -3.664062 7.046875 -3.84375 C 6.835938 -4.03125 6.5625 -4.175781 6.21875 -4.28125 C 5.882812 -4.394531 5.4375 -4.515625 4.875 -4.640625 C 4 -4.847656 3.28125 -5.054688 2.71875 -5.265625 C 2.164062 -5.472656 1.6875 -5.804688 1.28125 -6.265625 C 0.882812 -6.722656 0.6875 -7.335938 0.6875 -8.109375 C 0.6875 -8.773438 0.863281 -9.378906 1.21875 -9.921875 C 1.582031 -10.460938 2.128906 -10.890625 2.859375 -11.203125 C 3.585938 -11.523438 4.476562 -11.6875 5.53125 -11.6875 C 6.257812 -11.6875 6.972656 -11.597656 7.671875 -11.421875 C 8.378906 -11.242188 8.992188 -10.992188 9.515625 -10.671875 L 8.703125 -8.640625 C 7.640625 -9.242188 6.578125 -9.546875 5.515625 -9.546875 C 4.765625 -9.546875 4.210938 -9.425781 3.859375 -9.1875 C 3.503906 -8.945312 3.328125 -8.628906 3.328125 -8.234375 C 3.328125 -7.835938 3.53125 -7.546875 3.9375 -7.359375 C 4.351562 -7.171875 4.984375 -6.984375 5.828125 -6.796875 C 6.703125 -6.585938 7.414062 -6.378906 7.96875 -6.171875 C 8.53125 -5.960938 9.007812 -5.632812 9.40625 -5.1875 C 9.8125 -4.738281 10.015625 -4.128906 10.015625 -3.359375 C 10.015625 -2.703125 9.828125 -2.101562 9.453125 -1.5625 C 9.085938 -1.019531 8.535156 -0.585938 7.796875 -0.265625 C 7.066406 0.046875 6.179688 0.203125 5.140625 0.203125 Z M 5.140625 0.203125 "/></g></g></g><g fill="#ffffff" fill-opacity="1"><g transform="translate(127.83053, 143.278714)"><g><path d="M 6.328125 -11.484375 C 7.347656 -11.484375 8.234375 -11.3125 8.984375 -10.96875 C 9.734375 -10.632812 10.3125 -10.15625 10.71875 -9.53125 C 11.125 -8.90625 11.328125 -8.164062 11.328125 -7.3125 C 11.328125 -6.46875 11.125 -5.734375 10.71875 -5.109375 C 10.3125 -4.484375 9.734375 -4.003906 8.984375 -3.671875 C 8.234375 -3.335938 7.347656 -3.171875 6.328125 -3.171875 L 4.015625 -3.171875 L 4.015625 0 L 1.359375 0 L 1.359375 -11.484375 Z M 6.1875 -5.328125 C 6.988281 -5.328125 7.59375 -5.5 8 -5.84375 C 8.414062 -6.1875 8.625 -6.675781 8.625 -7.3125 C 8.625 -7.957031 8.414062 -8.453125 8 -8.796875 C 7.59375 -9.140625 6.988281 -9.3125 6.1875 -9.3125 L 4.015625 -9.3125 L 4.015625 -5.328125 Z M 6.1875 -5.328125 "/></g></g></g><g fill="#ffffff" fill-opacity="1"><g transform="translate(144.001224, 143.278714)"><g><path d="M 8.921875 -2.46875 L 3.59375 -2.46875 L 2.578125 0 L -0.140625 0 L 4.96875 -11.484375 L 7.59375 -11.484375 L 12.734375 0 L 9.9375 0 Z M 8.09375 -4.484375 L 6.265625 -8.875 L 4.453125 -4.484375 Z M 8.09375 -4.484375 "/></g></g></g><g fill="#ffffff" fill-opacity="1"><g transform="translate(160.729442, 143.278714)"><g/></g></g><g fill="#ffffff" fill-opacity="1"><g transform="translate(169.537576, 143.278714)"><g><path d="M 10.25 -2.140625 L 10.25 0 L 1.359375 0 L 1.359375 -11.484375 L 10.046875 -11.484375 L 10.046875 -9.359375 L 4 -9.359375 L 4 -6.859375 L 9.328125 -6.859375 L 9.328125 -4.796875 L 4 -4.796875 L 4 -2.140625 Z M 10.25 -2.140625 "/></g></g></g><g fill="#ffffff" fill-opacity="1"><g transform="translate(184.708012, 143.278714)"><g><path d="M 8.59375 0 L 5.828125 -3.984375 L 3.09375 0 L 0.046875 0 L 4.296875 -5.84375 L 0.265625 -11.484375 L 3.28125 -11.484375 L 5.921875 -7.765625 L 8.515625 -11.484375 L 11.390625 -11.484375 L 7.390625 -5.9375 L 11.671875 0 Z M 8.59375 0 "/></g></g></g><g fill="#ffffff" fill-opacity="1"><g transform="translate(200.58355, 143.278714)"><g><path d="M 6.328125 -11.484375 C 7.347656 -11.484375 8.234375 -11.3125 8.984375 -10.96875 C 9.734375 -10.632812 10.3125 -10.15625 10.71875 -9.53125 C 11.125 -8.90625 11.328125 -8.164062 11.328125 -7.3125 C 11.328125 -6.46875 11.125 -5.734375 10.71875 -5.109375 C 10.3125 -4.484375 9.734375 -4.003906 8.984375 -3.671875 C 8.234375 -3.335938 7.347656 -3.171875 6.328125 -3.171875 L 4.015625 -3.171875 L 4.015625 0 L 1.359375 0 L 1.359375 -11.484375 Z M 6.1875 -5.328125 C 6.988281 -5.328125 7.59375 -5.5 8 -5.84375 C 8.414062 -6.1875 8.625 -6.675781 8.625 -7.3125 C 8.625 -7.957031 8.414062 -8.453125 8 -8.796875 C 7.59375 -9.140625 6.988281 -9.3125 6.1875 -9.3125 L 4.015625 -9.3125 L 4.015625 -5.328125 Z M 6.1875 -5.328125 "/></g></g></g><g fill="#ffffff" fill-opacity="1"><g transform="translate(216.754244, 143.278714)"><g><path d="M 10.25 -2.140625 L 10.25 0 L 1.359375 0 L 1.359375 -11.484375 L 10.046875 -11.484375 L 10.046875 -9.359375 L 4 -9.359375 L 4 -6.859375 L 9.328125 -6.859375 L 9.328125 -4.796875 L 4 -4.796875 L 4 -2.140625 Z M 10.25 -2.140625 "/></g></g></g><g fill="#ffffff" fill-opacity="1"><g transform="translate(231.92468, 143.278714)"><g><path d="M 8.671875 0 L 6.46875 -3.203125 L 4.015625 -3.203125 L 4.015625 0 L 1.359375 0 L 1.359375 -11.484375 L 6.328125 -11.484375 C 7.347656 -11.484375 8.234375 -11.3125 8.984375 -10.96875 C 9.734375 -10.632812 10.3125 -10.15625 10.71875 -9.53125 C 11.125 -8.90625 11.328125 -8.164062 11.328125 -7.3125 C 11.328125 -6.457031 11.117188 -5.722656 10.703125 -5.109375 C 10.296875 -4.492188 9.710938 -4.019531 8.953125 -3.6875 L 11.53125 0 Z M 8.625 -7.3125 C 8.625 -7.957031 8.414062 -8.453125 8 -8.796875 C 7.59375 -9.140625 6.988281 -9.3125 6.1875 -9.3125 L 4.015625 -9.3125 L 4.015625 -5.3125 L 6.1875 -5.3125 C 6.988281 -5.3125 7.59375 -5.484375 8 -5.828125 C 8.414062 -6.179688 8.625 -6.675781 8.625 -7.3125 Z M 8.625 -7.3125 "/></g></g></g><g fill="#ffffff" fill-opacity="1"><g transform="translate(248.144568, 143.278714)"><g><path d="M 1.359375 -11.484375 L 4.015625 -11.484375 L 4.015625 0 L 1.359375 0 Z M 1.359375 -11.484375 "/></g></g></g><g fill="#ffffff" fill-opacity="1"><g transform="translate(257.690606, 143.278714)"><g><path d="M 10.25 -2.140625 L 10.25 0 L 1.359375 0 L 1.359375 -11.484375 L 10.046875 -11.484375 L 10.046875 -9.359375 L 4 -9.359375 L 4 -6.859375 L 9.328125 -6.859375 L 9.328125 -4.796875 L 4 -4.796875 L 4 -2.140625 Z M 10.25 -2.140625 "/></g></g></g><g fill="#ffffff" fill-opacity="1"><g transform="translate(272.861042, 143.278714)"><g><path d="M 11.890625 -11.484375 L 11.890625 0 L 9.71875 0 L 3.984375 -6.96875 L 3.984375 0 L 1.359375 0 L 1.359375 -11.484375 L 3.5625 -11.484375 L 9.265625 -4.515625 L 9.265625 -11.484375 Z M 11.890625 -11.484375 "/></g></g></g><g fill="#ffffff" fill-opacity="1"><g transform="translate(290.27796, 143.278714)"><g><path d="M 6.859375 0.203125 C 5.691406 0.203125 4.632812 -0.0507812 3.6875 -0.5625 C 2.738281 -1.070312 1.992188 -1.773438 1.453125 -2.671875 C 0.910156 -3.578125 0.640625 -4.601562 0.640625 -5.75 C 0.640625 -6.882812 0.910156 -7.898438 1.453125 -8.796875 C 1.992188 -9.703125 2.738281 -10.410156 3.6875 -10.921875 C 4.632812 -11.429688 5.695312 -11.6875 6.875 -11.6875 C 7.875 -11.6875 8.773438 -11.507812 9.578125 -11.15625 C 10.378906 -10.800781 11.050781 -10.296875 11.59375 -9.640625 L 9.890625 -8.078125 C 9.117188 -8.972656 8.15625 -9.421875 7 -9.421875 C 6.289062 -9.421875 5.65625 -9.265625 5.09375 -8.953125 C 4.539062 -8.640625 4.109375 -8.203125 3.796875 -7.640625 C 3.484375 -7.085938 3.328125 -6.457031 3.328125 -5.75 C 3.328125 -5.03125 3.484375 -4.390625 3.796875 -3.828125 C 4.109375 -3.273438 4.539062 -2.84375 5.09375 -2.53125 C 5.65625 -2.21875 6.289062 -2.0625 7 -2.0625 C 8.15625 -2.0625 9.117188 -2.515625 9.890625 -3.421875 L 11.59375 -1.859375 C 11.050781 -1.191406 10.375 -0.679688 9.5625 -0.328125 C 8.75 0.0234375 7.847656 0.203125 6.859375 0.203125 Z M 6.859375 0.203125 "/></g></g></g><g fill="#ffffff" fill-opacity="1"><g transform="translate(306.465033, 143.278714)"><g><path d="M 10.25 -2.140625 L 10.25 0 L 1.359375 0 L 1.359375 -11.484375 L 10.046875 -11.484375 L 10.046875 -9.359375 L 4 -9.359375 L 4 -6.859375 L 9.328125 -6.859375 L 9.328125 -4.796875 L 4 -4.796875 L 4 -2.140625 Z M 10.25 -2.140625 "/></g></g></g></svg>